<svg width="715" height="596" viewBox="0 0 715 596" fill="none" xmlns="http://www.w3.org/2000/svg">
    <path d="M379 369.127C379 369.127 369.211 369.127 361.868 380.622C361.172 381.713 360.607 382.853 360.151 384.068C357.283 369.925 352.079 362.229 352.079 362.229C351.083 374.31 347.387 384.447 343.158 392.398C341.088 364.06 327.333 346 327.333 346C325.829 365.618 322.713 381.394 319.918 392.405C317.246 383.997 314.021 372.627 310.474 357.631C310.474 357.631 305.747 366.516 303.344 380.97C303.274 380.854 303.205 380.737 303.132 380.622C295.789 369.126 286 369.126 286 369.126C291.534 384.721 288.726 401.619 287.008 409C288.749 408.446 290.602 408.144 292.526 408.144H372.474C374.398 408.144 376.251 408.446 377.993 409C376.273 401.62 373.466 384.722 379 369.127Z" fill="#5C913B"/>
    <path d="M526 139.127C526 139.127 516.211 139.127 508.868 150.622C508.172 151.713 507.607 152.853 507.151 154.068C504.283 139.925 499.079 132.229 499.079 132.229C498.083 144.31 494.387 154.447 490.158 162.398C488.088 134.06 474.333 116 474.333 116C472.829 135.618 469.713 151.394 466.918 162.405C464.246 153.997 461.021 142.627 457.474 127.631C457.474 127.631 452.747 136.516 450.344 150.97C450.274 150.854 450.205 150.737 450.132 150.622C442.789 139.126 433 139.126 433 139.126C438.534 154.721 435.726 171.619 434.008 179C435.749 178.446 437.602 178.144 439.526 178.144H519.474C521.398 178.144 523.251 178.446 524.993 179C523.273 171.62 520.466 154.722 526 139.127Z" fill="#5C913B"/>
    <path d="M212 202.127C212 202.127 202.211 202.127 194.868 213.622C194.172 214.713 193.607 215.853 193.151 217.068C190.283 202.925 185.079 195.229 185.079 195.229C184.083 207.31 180.387 217.447 176.158 225.398C174.088 197.06 160.333 179 160.333 179C158.829 198.618 155.713 214.394 152.918 225.405C150.246 216.997 147.021 205.627 143.474 190.631C143.474 190.631 138.747 199.516 136.344 213.97C136.274 213.854 136.205 213.737 136.132 213.622C128.789 202.126 119 202.126 119 202.126C124.534 217.721 121.726 234.619 120.008 242C121.749 241.446 123.602 241.144 125.526 241.144H205.474C207.398 241.144 209.251 241.446 210.993 242C209.273 234.62 206.466 217.722 212 202.127Z" fill="#5C913B"/>
</svg>
    