<svg width="407" height="293" viewBox="0 0 407 293" fill="none" xmlns="http://www.w3.org/2000/svg">
<path d="M260 253.127C260 253.127 250.211 253.127 242.868 264.622C242.172 265.713 241.607 266.853 241.151 268.068C238.283 253.925 233.079 246.229 233.079 246.229C232.083 258.31 228.387 268.447 224.158 276.398C222.088 248.06 208.333 230 208.333 230C206.829 249.618 203.713 265.394 200.918 276.405C198.246 267.997 195.021 256.627 191.474 241.631C191.474 241.631 186.747 250.516 184.344 264.97C184.274 264.854 184.205 264.737 184.132 264.622C176.789 253.126 167 253.126 167 253.126C172.534 268.721 169.726 285.619 168.008 293C169.749 292.446 171.602 292.144 173.526 292.144H253.474C255.398 292.144 257.251 292.446 258.993 293C257.273 285.62 254.466 268.722 260 253.127Z" fill="#5C913B"/>
<path d="M407 23.1266C407 23.1266 397.211 23.1266 389.868 34.6224C389.172 35.7132 388.607 36.8534 388.151 38.0675C385.283 23.925 380.079 16.2294 380.079 16.2294C379.083 28.3096 375.387 38.4467 371.158 46.3977C369.088 18.0601 355.333 0 355.333 0C353.829 19.6183 350.713 35.3942 347.918 46.4046C345.246 37.9975 342.021 26.6267 338.474 11.6308C338.474 11.6308 333.747 20.5161 331.344 34.9697C331.274 34.8538 331.205 34.7371 331.132 34.6222C323.789 23.1264 314 23.1264 314 23.1264C319.534 38.7213 316.726 55.6195 315.008 63C316.749 62.4461 318.602 62.1441 320.526 62.1441H400.474C402.398 62.1441 404.251 62.4457 405.993 63C404.273 55.6197 401.466 38.7217 407 23.1266Z" fill="#5C913B"/>
<path d="M93 86.1266C93 86.1266 83.2105 86.1266 75.8684 97.6224C75.1716 98.7132 74.6066 99.8534 74.1515 101.068C71.2828 86.925 66.0791 79.2294 66.0791 79.2294C65.0826 91.3096 61.3867 101.447 57.1584 109.398C55.0885 81.0601 41.3333 63 41.3333 63C39.8286 82.6183 36.7126 98.3942 33.9181 109.405C31.2465 100.997 28.0209 89.6267 24.4738 74.6308C24.4738 74.6308 19.7466 83.5161 17.3438 97.9697C17.2735 97.8538 17.205 97.7371 17.1316 97.6222C9.78948 86.1264 0 86.1264 0 86.1264C5.53358 101.721 2.72635 118.619 1.0075 126C2.74898 125.446 4.60243 125.144 6.52632 125.144H86.4739C88.3978 125.144 90.2512 125.446 91.9927 126C90.2734 118.62 87.4664 101.722 93 86.1266Z" fill="#5C913B"/>
</svg>
