<svg width="1677" height="906" viewBox="0 0 1677 906" fill="none" xmlns="http://www.w3.org/2000/svg">
<path d="M1590.73 775.879C1588.59 781.868 1584.49 787.297 1581.38 792.789C1574.52 804.935 1566.66 816.761 1560.34 829.185C1559.05 831.721 1557.48 835.56 1555.7 837.745C1553.84 840.028 1560.64 840.389 1561.52 840.389H1576.78C1578.91 840.389 1581.14 840.187 1583.25 840.389C1585.15 840.571 1579.97 848.135 1579.86 848.323C1570.85 863.757 1558.39 875.471 1546.01 887.92C1545.16 888.774 1544.39 891.81 1544 893M1550.23 891.121C1557.88 888.101 1563.41 882.111 1570.03 877.481C1577.62 872.172 1585.36 866.896 1593.22 862.032C1599.97 857.859 1606.55 851.248 1610.88 844.565C1611.81 843.123 1613.57 841.124 1615.03 840.389M1591.35 822.226C1594.4 822.226 1625 821.746 1625 822.853C1625 825.047 1620.17 831.817 1618.15 833.013C1615.68 834.469 1614.08 837.998 1612.68 840.389C1611.9 841.722 1610.53 842.695 1610.05 844.147M1591.98 818.468C1593.09 816.093 1593.22 813.87 1593.22 811.266C1593.22 806.462 1594.89 801.782 1595.09 797.034C1595.33 791.464 1597.58 786.238 1597.58 780.576C1597.58 778.517 1597.06 775.724 1598.21 774M1133.19 122.546C1133.19 124.588 1133.05 126.631 1132.82 128.674M1132.82 128.674C1132.1 135.073 1130.54 141.476 1129.94 147.889C1128.98 158.16 1127.84 168.434 1127.08 178.672C1126.86 181.668 1127.34 189.91 1125.34 192.409C1122.41 196.072 1126.68 198.473 1129.72 198.184C1145.61 196.67 1161.6 194.203 1177.71 194.203H1212.42C1216.78 194.203 1214.94 187.563 1214.94 184.222V164.15C1214.94 159.952 1214.45 155.409 1215 151.254C1215.68 146.162 1217.97 141.724 1217.97 136.451V131.629C1217.97 130.723 1219.02 127.794 1218.36 127.648C1208.71 125.502 1197.64 126.583 1187.81 126.583C1173.41 126.583 1159.38 127.725 1145.02 128.545C1140.99 128.776 1136.84 128.299 1132.82 128.674ZM1132.82 128.674C1131.24 128.822 1129.67 129.102 1128.15 129.611M1148.33 193.194C1145.68 192.53 1147.32 174.726 1147.32 172.111C1147.32 166.863 1147.98 162.38 1149.4 157.421C1149.85 155.837 1153.69 150.97 1154.89 150.3C1157.41 148.901 1162.14 149.796 1164.99 149.796C1169.52 149.796 1171.55 163.811 1171.55 167.962C1171.55 176.326 1170.54 184.228 1170.54 192.184M1190.72 141.722C1190.72 147.854 1189.71 153.767 1189.71 159.888C1189.71 164.112 1205.3 162.076 1206.87 159.328C1208.94 155.701 1213.57 139.703 1208.38 139.703H1189.71M1203.84 146.768C1203.53 146.807 1203.25 146.898 1202.98 147.034M1202.98 147.034C1200.98 148.066 1200.33 151.645 1199.18 153.736M1202.98 147.034C1202.88 147.511 1202.78 148.059 1202.7 148.639M1202.98 147.034C1203.16 146.262 1203.37 145.673 1203.62 145.422C1204.18 144.861 1204.4 145.036 1204.44 145.646M1199.18 153.736C1198.99 154.074 1198.79 154.374 1198.57 154.618C1196.02 157.42 1196.9 157.055 1198.66 155.78M1199.18 153.736C1198.95 154.473 1198.77 155.165 1198.66 155.78M1199.18 153.736C1200.39 149.855 1202.94 144.708 1202.83 142.731C1202.81 142.35 1196.57 150.179 1194.08 153.542M1198.66 155.78C1198.97 155.559 1199.3 155.311 1199.65 155.047M1198.66 155.78C1198.61 156.095 1198.58 156.389 1198.57 156.66M1199.65 155.047C1200.08 154.719 1200.53 154.367 1200.97 154.014M1199.65 155.047C1200.38 153.991 1201.17 152.912 1201.91 151.92M1199.65 155.047C1199.27 155.596 1198.9 156.139 1198.57 156.66M1200.97 154.014C1201.45 153.641 1201.91 153.266 1202.34 152.916M1200.97 154.014C1200.51 154.694 1200.03 155.406 1199.55 156.107M1200.97 154.014C1201.42 153.357 1201.84 152.729 1202.22 152.166M1202.34 152.916C1202.37 152.892 1202.4 152.868 1202.43 152.844M1202.34 152.916C1202.34 153.068 1202.33 153.215 1202.33 153.356M1202.34 152.916C1202.34 152.873 1202.35 152.831 1202.35 152.788M1202.43 152.844C1202.54 152.757 1202.64 152.672 1202.74 152.59M1202.43 152.844C1202.4 152.83 1202.37 152.811 1202.35 152.788M1202.43 152.844C1202.48 152.864 1202.53 152.875 1202.59 152.874M1202.74 152.59C1203.14 152.265 1203.49 151.972 1203.78 151.736M1202.74 152.59C1203.14 151.857 1203.53 151.105 1203.92 150.367M1202.74 152.59C1202.69 152.685 1202.64 152.78 1202.59 152.874M1203.78 151.736C1203.99 151.558 1204.17 151.412 1204.29 151.31C1204.65 151.007 1204.99 150.69 1205.3 150.368M1203.78 151.736C1203.81 151.293 1203.86 150.831 1203.92 150.367M1203.78 151.736C1203.76 151.93 1203.75 152.119 1203.75 152.304M1205.3 150.368C1205.49 150.164 1205.68 149.958 1205.85 149.753M1205.3 150.368C1205.11 150.731 1204.92 151.114 1204.72 151.511M1205.3 150.368C1205.5 149.962 1205.69 149.581 1205.86 149.235C1206.22 148.525 1206.16 148.909 1205.85 149.753M1205.85 149.753C1206.01 149.567 1206.16 149.382 1206.29 149.199M1205.85 149.753C1205.71 150.144 1205.51 150.633 1205.27 151.159M1206.29 149.199C1207.8 147.214 1208.17 145.487 1206.85 146.342M1206.29 149.199C1206.14 149.881 1205.99 150.49 1205.86 150.917C1205.78 151.178 1205.31 152.457 1204.99 153.716M1206.29 149.199C1206.5 148.287 1206.7 147.246 1206.85 146.342M1206.85 146.342C1206.45 146.598 1205.9 147.086 1205.19 147.868M1206.85 146.342C1207.13 144.639 1207.23 143.422 1206.81 144.469C1206.7 144.762 1206.34 145.515 1205.85 146.526M1205.19 147.868C1205.02 148.055 1204.83 148.26 1204.64 148.482M1205.19 147.868C1205.41 147.417 1205.62 146.992 1205.81 146.603M1205.19 147.868C1204.8 148.644 1204.37 149.496 1203.92 150.367M1204.64 148.482C1204.53 148.614 1204.41 148.753 1204.29 148.899C1204.22 148.982 1204.15 149.069 1204.07 149.16M1204.64 148.482C1204.46 148.762 1204.26 149.077 1204.04 149.429M1204.64 148.482C1205.35 147.376 1205.7 146.803 1205.81 146.603M1204.07 149.16C1203.89 149.378 1203.7 149.618 1203.5 149.876M1204.07 149.16C1204.08 149.107 1204.09 149.055 1204.1 149.003M1204.07 149.16C1204.06 149.249 1204.05 149.339 1204.04 149.429M1203.5 149.876C1203.17 150.287 1202.81 150.743 1202.44 151.229M1203.5 149.876C1203.69 149.591 1203.9 149.295 1204.1 149.003M1203.5 149.876C1203.08 150.481 1202.69 151.039 1202.42 151.42M1202.44 151.229C1202.43 151.238 1202.42 151.247 1202.42 151.256M1202.44 151.229C1202.43 151.293 1202.43 151.357 1202.42 151.42M1202.44 151.229C1202.44 151.211 1202.44 151.192 1202.44 151.173M1202.42 151.256C1202.25 151.472 1202.08 151.694 1201.91 151.92M1202.42 151.256C1202.43 151.229 1202.43 151.201 1202.44 151.173M1202.42 151.256C1202.39 151.354 1202.36 151.449 1202.34 151.54M1201.91 151.92C1201.96 151.924 1202 151.926 1202.05 151.926C1202.06 151.926 1202.17 151.782 1202.34 151.54M1201.91 151.92C1200.77 151.812 1201.67 150.255 1202.7 148.639M1198.57 156.66C1198.34 157.004 1198.13 157.339 1197.94 157.66M1198.57 156.66C1198.56 156.802 1198.56 156.937 1198.57 157.065M1197.94 157.66C1197.41 158.535 1197 159.306 1196.8 159.878M1197.94 157.66C1191.25 163.866 1192.58 158.885 1194.08 153.542M1197.94 157.66C1198.14 157.472 1198.35 157.274 1198.57 157.065M1196.8 159.878C1196.75 160.011 1196.71 160.133 1196.69 160.244M1196.8 159.878C1197.09 159.508 1197.45 159.065 1197.84 158.598M1196.8 159.878C1196.53 160.217 1196.33 160.495 1196.22 160.673C1195.4 162.001 1195.77 161.539 1196.69 160.244M1196.69 160.244C1196.53 160.923 1196.82 161.156 1197.79 160.673C1199.64 159.746 1201.41 157.356 1202.9 154.848M1196.69 160.244C1197.01 159.785 1197.4 159.223 1197.84 158.598M1202.9 154.848C1203.19 154.347 1203.48 153.843 1203.75 153.344M1202.9 154.848C1203.2 154.59 1203.51 154.231 1203.8 153.815M1202.9 154.848C1202.73 154.993 1202.55 155.106 1202.38 155.178C1202.32 155.208 1202.29 154.456 1202.33 153.356M1203.75 153.344C1204.1 152.716 1204.42 152.098 1204.72 151.511M1203.75 153.344C1203.73 153.022 1203.73 152.673 1203.75 152.304M1203.75 153.344C1203.76 153.509 1203.78 153.666 1203.8 153.815M1204.72 151.511C1204.69 151.536 1204.66 151.562 1204.63 151.59C1204.29 151.88 1204 152.117 1203.75 152.304M1204.72 151.511C1204.96 151.312 1205.14 151.198 1205.27 151.159M1205.27 151.159C1204.87 152.044 1204.35 153.03 1203.8 153.815M1205.27 151.159C1205.84 150.989 1205.48 152.222 1204.7 153.998M1203.8 153.815C1203.82 153.982 1203.86 154.138 1203.9 154.281C1203.97 154.533 1204.27 154.383 1204.7 153.998M1202.33 153.356C1202.41 153.197 1202.5 153.036 1202.59 152.874M1202.33 153.356C1200.78 156.181 1199.35 158.503 1199.02 158.206C1198.85 158.057 1198.74 157.856 1198.66 157.609M1202.35 152.788C1202.36 152.51 1202.37 152.218 1202.39 151.916M1202.35 152.788C1202.23 152.676 1202.2 152.461 1202.22 152.166M1202.39 151.916C1202.4 151.753 1202.41 151.588 1202.42 151.42M1202.39 151.916C1202.34 151.998 1202.28 152.081 1202.22 152.166M1202.39 151.916C1203.03 150.964 1203.52 150.229 1203.73 149.908C1203.84 149.741 1203.94 149.582 1204.04 149.429M1202.42 151.42C1202.4 151.462 1202.37 151.502 1202.34 151.54M1202.44 151.173C1202.51 150.332 1202.59 149.453 1202.7 148.639M1202.44 151.173C1202.82 149.933 1203.61 148.18 1204.42 146.488M1202.7 148.639C1203.32 147.676 1203.98 146.693 1204.29 145.983C1204.33 145.882 1204.38 145.769 1204.44 145.646M1204.44 145.646C1204.45 145.872 1204.44 146.157 1204.42 146.488M1204.44 145.646C1205.26 143.815 1207.26 139.81 1206.81 141.385C1206.63 142.042 1205.5 144.209 1204.42 146.488M1204.42 146.488C1204.36 147.178 1204.23 148.063 1204.1 149.003M1204.1 149.003C1205.01 147.672 1205.88 146.413 1205.85 146.526M1204.04 149.429C1203.99 149.74 1203.95 150.054 1203.92 150.367M1203.75 152.304C1203.21 152.697 1202.83 152.873 1202.59 152.874M1204.7 153.998C1204.79 153.914 1204.89 153.82 1204.99 153.716M1204.7 153.998C1203.44 156.884 1201.09 161.202 1199.92 163.252C1199.18 164.545 1200.15 160.21 1200.81 158.879M1204.99 153.716C1206.57 152.125 1209.28 148.341 1209.22 148.506C1209.04 149.06 1205.48 156.512 1205.08 156.412C1204.5 156.269 1204.67 155.003 1204.99 153.716ZM1205.85 146.526C1205.84 146.552 1205.83 146.577 1205.81 146.603M1205.85 146.526C1205.85 146.538 1205.84 146.563 1205.81 146.603M1198.66 157.609C1198.65 157.56 1198.63 157.51 1198.62 157.458M1198.66 157.609C1200.4 155.529 1202.01 153.648 1199.58 156.076C1199.57 156.086 1199.56 156.097 1199.55 156.107M1198.66 157.609C1198.38 157.939 1198.1 158.274 1197.84 158.598M1198.62 157.458C1198.6 157.336 1198.58 157.205 1198.57 157.065M1198.62 157.458C1198.35 157.853 1198.09 158.236 1197.84 158.598M1198.62 157.458C1198.92 157.019 1199.24 156.565 1199.55 156.107M1198.57 157.065C1198.88 156.768 1199.21 156.449 1199.55 156.107M1194.08 153.542C1193.7 154.059 1193.41 154.47 1193.24 154.73C1192.14 156.442 1191.58 155.312 1191.79 153.833C1191.82 153.634 1191.86 153.436 1191.91 153.24M1194.08 153.542C1194.29 152.797 1194.51 152.044 1194.7 151.314M1191.91 153.24C1192.29 151.813 1193.26 150.459 1194.14 149.146M1191.91 153.24C1192.47 152.513 1193.18 151.477 1193.81 150.533M1191.91 153.24C1191.42 153.868 1191.05 154.264 1190.95 154.169C1189.35 152.749 1192.15 147.941 1192.74 146.768C1192.88 146.485 1193.02 146.207 1193.15 145.936M1194.14 149.146C1194.58 148.494 1195 147.852 1195.32 147.217C1195.37 147.108 1195.43 146.986 1195.5 146.854M1194.14 149.146C1194.4 148.112 1194.74 146.884 1195.13 145.693M1194.14 149.146C1194.01 149.668 1193.9 150.14 1193.81 150.533M1195.5 146.854C1196.52 144.743 1198.66 139.953 1197.28 141.329C1196.48 142.134 1195.74 143.868 1195.13 145.693M1195.5 146.854C1195.48 146.327 1195.37 145.924 1195.13 145.693M1195.5 146.854C1195.51 147.212 1195.48 147.628 1195.41 148.088M1195.13 145.693C1194.78 145.354 1194.16 145.386 1193.15 145.936M1193.81 150.533C1193.79 150.628 1193.77 150.719 1193.75 150.805C1193.22 153.197 1193 153.144 1194.7 151.314M1193.81 150.533C1194.57 149.391 1195.21 148.384 1195.32 148.226C1195.35 148.186 1195.38 148.14 1195.41 148.088M1194.7 151.314C1194.72 151.294 1194.74 151.274 1194.76 151.254C1197.94 147.845 1200.12 142.872 1202.61 138.918C1206.26 133.13 1196.91 145.908 1195.41 148.088M1194.7 151.314C1195.02 150.14 1195.28 149.024 1195.41 148.088M1193.15 145.936C1195.46 141.218 1196.33 138.429 1191.34 144.189C1188.9 147.005 1188.35 149.04 1192.52 146.319C1192.74 146.171 1192.95 146.043 1193.15 145.936ZM1202.22 152.166C1202.24 151.985 1202.28 151.775 1202.34 151.54M1112 131.629C1112 125.093 1119.37 120.226 1123.61 115.986C1130.21 109.379 1137.96 103.491 1144.97 97.0904C1149.41 93.0361 1154.71 90.6115 1159.04 86.1008C1164.58 80.3468 1170.72 75.684 1175.98 69.6164C1177.42 67.9534 1185.1 59.4466 1187.13 60.0285C1189.62 60.7396 1193.02 67.0423 1194.37 69.1117C1197.48 73.8956 1202.21 77.2902 1205.64 81.7274C1207.15 83.6931 1208.54 85.8004 1209.95 87.839C1211.93 90.6848 1214.87 92.2764 1216.74 95.0719C1221.73 102.553 1229.89 107.498 1234.68 115.033C1236.12 117.3 1239.17 120.699 1239.17 123.555C1239.17 125.398 1233.41 124.564 1232.1 124.564C1227.2 124.564 1222.43 125.574 1217.97 125.574M1112 129.611C1117.36 129.611 1123.12 130.279 1128.15 128.601M1211.92 88.2314C1211.92 84.0693 1213.22 81.412 1214.49 77.5782C1215.61 74.2176 1216.26 67.7333 1218.48 65.0747C1220.13 63.0849 1233.38 66.5516 1230.59 71.5788C1226.23 79.4245 1227.89 89.9987 1223.02 97.3147M74.9054 549.413C72.054 549.413 69.0268 549.661 65.9567 550.158M65.9567 550.158C56.421 551.7 46.471 555.644 40.0862 562.029C36.3866 565.729 37.5631 571.337 37.5631 576.158C37.5631 579.882 38.9961 579.367 40.5908 582.158C41.0692 582.995 43.8645 584.058 41.488 584.737C38.3384 585.637 35.2597 586.8 32.1244 587.765C29.1688 588.674 24.4188 594.587 23.4336 597.297C21.1029 603.706 17.2716 613.787 22.985 619.5C29.8742 626.389 34.1501 626.116 44.0672 626.116C49.9602 626.116 47.766 624.206 50.2348 629.144C52.2102 633.095 52.5639 638.411 55.1689 641.76C62.1424 650.726 74.6839 646.07 82.4187 639.741C84.7279 637.852 88.0256 634.706 88.0256 631.667C88.0256 625.796 93.667 619.387 96.4921 614.678C98.5464 611.254 97.5476 612.796 101.146 612.996C104.684 613.193 108.186 614.153 112.023 614.005C119.433 613.72 118.303 604.771 118.303 599.876C118.303 594.087 113.539 591.829 113.257 586.756C112.94 581.051 127.688 574.996 129.629 568.589C132.191 560.135 131.378 556.644 124.583 551.208C122.128 549.244 115.777 550.365 112.696 550.423C108.061 550.508 99.1274 556.013 99.1274 550.198C99.1274 542.605 91.3862 531.511 82.7551 534.499C76.1577 536.783 69.0894 544.087 65.9567 550.158ZM65.9567 550.158C65.911 550.246 65.8661 550.334 65.8221 550.423M1651.74 156.256C1650.32 153.787 1648.59 151.289 1646.63 148.878M1646.63 148.878C1640.52 141.391 1632.13 134.747 1623.41 132.41C1618.36 131.055 1614.09 134.879 1609.91 137.289C1606.69 139.151 1607.85 140.135 1606.23 142.911C1605.74 143.744 1606.22 146.696 1604.44 144.978C1602.09 142.7 1599.54 140.615 1597.14 138.382C1594.88 136.278 1587.38 135.12 1584.54 135.622C1577.82 136.808 1567.18 138.53 1565.09 146.335C1562.57 155.746 1564.94 159.313 1569.9 167.901C1572.85 173.004 1573.4 170.149 1570.36 174.756C1567.93 178.442 1563.5 181.406 1561.9 185.337C1557.62 195.859 1567.93 204.393 1577.27 207.927C1580.07 208.982 1584.44 210.265 1587.07 208.746C1592.16 205.81 1600.53 207.491 1606.02 207.583C1610.01 207.65 1608.17 207.556 1609.8 210.772C1611.4 213.935 1612.32 217.448 1614.37 220.697C1618.32 226.972 1625.5 221.519 1629.74 219.071C1634.76 216.176 1634.33 210.922 1638.58 208.141C1643.36 205.014 1655.98 214.758 1662.5 213.236C1671.1 211.228 1673.72 208.778 1675.03 200.175C1675.5 197.068 1671.36 192.128 1669.77 189.489C1667.37 185.517 1658.14 180.533 1663.18 177.625C1669.75 173.829 1675.49 161.578 1668.59 155.597C1663.31 151.025 1653.45 148.556 1646.63 148.878ZM1646.63 148.878C1646.53 148.883 1646.43 148.889 1646.33 148.894M1439 334.139C1439 321.797 1464.72 319.675 1464.23 332.345C1463.97 339.207 1458.29 345.842 1457.22 352.81C1456.76 355.797 1452.83 368.808 1456.16 370.472M1459.19 391.666V389.648M1476.34 331.111C1477.04 324.831 1484.36 319 1489.97 319C1498.74 319 1499.56 329.038 1499.56 335.54C1499.56 338.592 1499.24 340.871 1498.6 343.727C1498.01 346.39 1495.7 348.286 1495.52 351.296C1495.17 357.213 1494.51 364.022 1494.51 370.472M1494.51 393.685V395.703M1515.7 327.074C1515.83 326.084 1521.02 323.225 1522.26 322.532C1524.5 321.288 1528.35 322.028 1530.84 322.028C1537.99 322.028 1539.93 333.518 1539.93 338.736C1539.93 342.281 1538.46 343.891 1536.18 346.398L1536.11 346.474C1533.31 349.553 1533.19 352.521 1531.35 355.838C1527.96 361.941 1527.81 370.596 1527.81 377.537M1529.83 386.62C1529.83 388.955 1529.56 391.531 1531.85 392.675M713.435 828.453C713.435 823.116 712.426 818.004 712.426 812.81C712.426 806.228 713.724 801.959 715.509 795.709C718.196 786.306 724.227 779 734.629 779C740.739 779 738.13 801.82 735.078 805.745C732.885 808.565 731.68 812.488 730.144 815.782C728.899 818.448 727.119 820.104 725.77 822.398C723.406 826.416 720.025 829.67 717.472 833.5C723.884 833.025 728.535 827.167 734.629 825.426C739.858 823.932 743.436 820.932 749.151 820.435C752.952 820.105 771.971 814.33 771.971 819.875C771.971 826.34 759.19 831.481 753.581 831.481C745.431 831.481 737.672 833.5 729.583 833.5H729.501C725.362 833.5 721.509 833.499 717.472 834.509M717.472 835.518C718.237 841.641 767.642 852.506 752.011 865.011C749.043 867.385 735.739 855.111 733.171 853.685C726.182 849.801 716.463 846.109 716.463 837.537C716.463 849.406 719.49 861.281 719.49 873.085C719.49 876.913 719.723 878.683 716.911 881.495C715.031 883.376 712.953 885.161 711.472 887.382C710.338 889.083 709.239 883.256 708.893 882.448C704.824 872.954 707.379 859.452 707.379 849.143C707.379 841.753 714.604 839.075 716.463 833.5C707.273 833.5 699.472 834.528 690.727 836.471C685.656 837.598 678.375 836.671 673.626 835.518C665.875 833.636 666 831.813 666 824.416C666 820.115 673.881 816.217 677.607 815.389C683.87 813.997 690.105 816.652 694.764 820.379C700.981 825.353 706.515 827.321 714.444 828.453M174.902 881.389C173.858 869.907 169.454 849.982 179.163 841.243C181.109 839.492 187.816 839 190.546 839C195.966 839 201.305 840.807 202.096 847.13C202.234 848.234 202.573 850.045 202.934 852.164M202.934 852.164C203.885 857.752 204.986 865.483 202.937 868.044C202.001 869.214 201.3 871.72 199.629 870.791C198.604 870.222 196.209 867.865 196.209 866.642C196.209 860.058 198.866 855.38 202.934 852.164ZM202.934 852.164C209.183 847.223 218.762 845.729 227.159 846.065C233.046 846.3 236.211 855.783 236.981 864.563M236.981 864.563C237.464 870.071 237.004 875.302 235.682 877.8C232.94 882.979 233.714 870.527 234.448 868.324C234.951 866.815 235.838 865.576 236.981 864.563ZM236.981 864.563C241.051 860.952 248.364 860.194 253.119 860.194C276.63 860.194 271.79 886.741 271.79 903.592M99.2996 136.204C100.343 147.685 104.748 167.61 95.0383 176.349C93.0928 178.1 86.386 178.592 83.6562 178.592C78.2354 178.592 72.8963 176.785 72.1059 170.462C71.968 169.358 71.6286 167.547 71.2678 165.428M71.2678 165.428C70.3165 159.84 69.2161 152.109 71.2649 149.548C72.2007 148.378 72.9021 145.872 74.573 146.801C75.5979 147.37 77.9932 149.727 77.9932 150.95C77.9932 157.534 75.3363 162.212 71.2678 165.428ZM71.2678 165.428C65.0187 170.369 55.4393 171.863 47.0429 171.527C41.1563 171.292 37.9909 161.809 37.221 153.029M37.221 153.029C36.738 147.521 37.1979 142.29 38.5203 139.792C41.2619 134.613 40.488 147.065 39.7538 149.268C39.2506 150.777 38.3636 152.016 37.221 153.029ZM37.221 153.029C33.1509 156.64 25.8382 157.398 21.0827 157.398C-2.42771 157.398 2.41154 130.851 2.41154 114M837 225.509C841.709 207.721 855.832 193.578 864.586 177.738C865.099 176.811 867.069 169.929 868.287 170.001C870.567 170.135 875.552 179.26 877.258 180.99C882.852 186.664 888.784 191.979 894.752 197.25C899.541 201.481 902.886 206.966 907.648 211.156C910.67 213.815 910.925 216.153 913.591 212.726C918.359 206.595 922.753 200.1 927.272 193.774C929.98 189.983 932.101 185.917 935.402 182.616C938.501 179.517 939.17 180.437 941.514 184.186C948.421 195.238 957.371 205.579 966.016 215.305C968.583 218.192 969.222 219.681 973.361 216.706C978.567 212.965 983.355 208.338 987.883 203.81C992.779 198.915 999.03 194.954 1003.47 189.681C1005.84 186.863 1006.36 183.939 1009.58 187.158M1287.58 843C1282.87 860.789 1268.75 874.931 1260 890.771C1259.48 891.698 1257.51 898.58 1256.3 898.509C1254.01 898.375 1249.03 889.249 1247.32 887.519C1241.73 881.845 1235.8 876.531 1229.83 871.259C1225.04 867.029 1221.7 861.544 1216.93 857.354C1213.91 854.694 1213.66 852.356 1210.99 855.784C1206.22 861.914 1201.83 868.409 1197.31 874.735C1194.6 878.526 1192.48 882.593 1189.18 885.893C1186.08 888.992 1185.41 888.072 1183.07 884.323C1176.16 873.271 1167.21 862.93 1158.57 853.205C1156 850.317 1155.36 848.828 1151.22 851.803C1146.01 855.545 1141.23 860.171 1136.7 864.699C1131.8 869.595 1125.55 873.556 1121.11 878.828C1118.74 881.646 1118.22 884.57 1115 881.352M1228 668.065C1228.53 673.391 1233.85 678.978 1235.85 683.988C1237.15 687.234 1239.24 691.486 1241.12 694.305M1253.23 661C1253.54 666.185 1254.88 672.478 1255.81 677.653C1256.98 684.17 1258.28 690.68 1258.28 697.333M1277.45 668.065C1277.45 673.747 1273.38 679.832 1271.17 684.998C1268.94 690.231 1266.35 701.37 1266.35 701.37M1291.58 675.13C1289.99 675.659 1288.38 678.66 1287.1 679.839C1283.48 683.171 1281.61 687.194 1279.36 691.446C1276.89 696.117 1273.68 700.839 1271.4 705.407M1264.33 716.509C1264.33 721.488 1264.95 725.753 1267.36 718.527M453.083 142C452.438 142 451.831 142.37 451.264 143.01M451.264 143.01C448.081 146.597 446.155 158.649 445.794 161.176C444.81 168.062 445.009 174.918 445.009 181.865C445.009 185.588 443.329 192.935 446.523 195.49C452.206 200.036 463.046 202.773 470.577 204.349C479.243 206.163 489.91 204.574 498.612 204.574C514.939 204.574 531.141 205.583 547.448 205.583C553.812 205.583 576.593 209.191 577.221 198.518C577.712 190.172 577.221 181.647 577.221 173.287C577.221 167.558 576.841 165.593 573.745 160.727L573.72 160.688C571.136 156.628 567.025 150.167 562.307 148.28C551.679 144.029 539.463 143.009 528.104 143.009C514.967 143.009 502.316 140.674 489.192 143.458C476.962 146.052 463.655 143.042 451.264 143.01ZM451.264 143.01C451.198 143.009 451.131 143.009 451.065 143.009M444 171.268C454.455 171.268 464.992 172.277 475.511 172.277C485.472 172.277 495.401 171.706 505.228 173.511C513.263 174.987 521.043 174.212 529.057 176.258C537.118 178.316 546.14 179.223 554.457 179.342C561.38 179.441 582.126 180.352 575.203 180.352M462.167 148.056C462.167 151.206 460.779 157.845 463.4 159.942C466.938 162.773 478.876 161.813 482.688 161.12C484.71 160.752 482.013 151.306 480.782 150.523C476.401 147.735 468.785 147.315 463.68 146.542C460.844 146.112 451.393 145.497 459.139 147.046M502.536 151.083C499.38 151.083 498.5 156.632 498.5 159.382C498.5 165.938 499.503 165.213 506.125 165.213C513.151 165.213 517.965 166.9 524.852 168.465C528.005 169.181 539.865 173.69 537.636 166.446C536.359 162.296 536.745 155.902 533.599 152.878C529.517 148.952 522.048 148.056 516.666 148.056C511.358 148.056 505.333 152.185 500.518 154.111M570.156 156.13C565.972 155.711 564.396 153.369 560.456 155.12C557.19 156.572 549.971 160.959 549.971 165.213C549.971 169.917 570.52 168.241 574.193 168.241M468.222 192.463C465.931 192.463 463.872 192.829 462.167 193.621M462.167 193.621C462.167 193.621 462.168 193.621 462.167 193.621ZM462.167 193.621C459.052 195.07 457.12 197.945 457.12 202.611C457.12 206.189 456.929 208.371 459.139 211.134C461.649 214.272 463.847 213.253 467.661 214.161C467.948 214.23 468.23 214.29 468.505 214.344M462.167 193.621C462.168 193.906 462.168 194.188 462.167 194.468M462.167 193.621C462.167 193.386 462.167 193.149 462.167 192.911L462.167 193.621ZM462.167 193.621L462.167 194.468M468.505 214.344C468.559 214.354 468.613 214.364 468.666 214.374M468.505 214.344C467.13 216.483 467.622 215.842 468.666 214.374M468.505 214.344C468.648 214.122 468.81 213.871 468.994 213.588M468.666 214.374C481.167 216.683 481.919 203.693 474.502 196.275C473.156 194.929 470.581 195.49 468.727 195.49C466.162 195.49 465.452 195.616 465.261 197.204M468.666 214.374C468.837 214.135 469.022 213.873 469.216 213.598M465.261 197.204C465.205 197.672 465.194 198.267 465.194 199.023C465.194 199.901 465.172 200.758 465.167 201.577M465.261 197.204C465.78 197.099 466.128 197.799 466.193 199.814M465.261 197.204C464.546 197.348 463.505 199.024 462.44 200.888M465.167 201.577C465.163 202.175 465.168 202.752 465.197 203.301M465.167 201.577C465.518 200.91 465.873 200.292 466.193 199.814M465.167 201.577C464.816 202.243 464.469 202.957 464.167 203.628M465.197 203.301C465.203 203.421 465.211 203.54 465.22 203.657M465.197 203.301C465.264 203.283 465.331 203.265 465.398 203.248M465.197 203.301C464.847 203.397 464.502 203.506 464.167 203.628M465.22 203.657C465.222 203.682 465.224 203.707 465.226 203.732M465.22 203.657C465.201 203.699 465.183 203.74 465.164 203.782M465.22 203.657C465.281 203.521 465.341 203.384 465.398 203.248M465.226 203.732C465.238 203.885 465.253 204.037 465.27 204.185M465.226 203.732C465.456 203.548 465.748 203.331 466.083 203.091M465.226 203.732C465.204 203.749 465.184 203.765 465.164 203.782M465.27 204.185C465.579 206.815 466.733 208.611 470.745 208.611C471.261 208.611 471.725 208.569 472.143 208.492M465.27 204.185C465.125 204.242 465.008 204.283 464.917 204.309M465.27 204.185C465.317 204.167 465.366 204.147 465.419 204.125C466.091 203.846 467.181 203.362 468.263 202.811M472.143 208.492C474.482 208.057 475.331 206.487 475.24 204.684M472.143 208.492C471.344 209.877 470.608 211.071 470.141 211.814M472.143 208.492C472.93 207.128 473.777 205.579 474.49 204.096M475.24 204.684C475.214 204.172 475.112 203.641 474.946 203.112M475.24 204.684C475.904 205.327 476.296 206.132 476.296 207.097C476.296 210.743 472.546 213.674 469.216 213.598M475.24 204.684C475.019 204.47 474.767 204.274 474.49 204.096M474.946 203.112C474.47 201.592 473.471 200.088 472.245 199.093M474.946 203.112C474.802 203.435 474.649 203.764 474.49 204.096M474.946 203.112C476.56 199.488 477.041 196.631 473.268 198.518C473.043 198.631 472.687 198.832 472.245 199.093M472.245 199.093C470.585 197.746 468.511 197.332 466.764 199.079C466.597 199.246 466.403 199.5 466.193 199.814M472.245 199.093C471.927 199.282 471.563 199.502 471.172 199.744M466.193 199.814C466.2 200.038 466.204 200.279 466.204 200.537C466.204 201.121 465.858 202.168 465.398 203.248M464.167 203.628C463.759 204.533 463.432 205.361 463.283 205.886M464.167 203.628C463.736 203.786 463.32 203.965 462.923 204.167M463.283 205.886C463.263 205.959 463.245 206.027 463.232 206.087C463.033 206.984 463.18 207.09 463.494 206.736M463.283 205.886C463.151 205.322 463.031 204.747 462.923 204.167M463.283 205.886C463.35 206.173 463.421 206.456 463.494 206.736M463.494 206.736C463.843 206.342 464.399 205.382 464.917 204.309M463.494 206.736C463.94 208.429 464.503 209.981 465.194 211.19C465.532 211.781 465.941 212.254 466.399 212.618M464.917 204.309C465 204.135 465.083 203.959 465.164 203.782M464.917 204.309C464.472 204.435 464.636 204.209 465.164 203.782M465.398 203.248C465.624 203.19 465.853 203.138 466.083 203.091M462.44 200.888C461.329 202.832 460.19 204.98 459.363 205.807C458.791 206.379 460.87 202.067 461.101 201.49C462.042 199.138 462.156 196.872 462.167 194.468M462.44 200.888C462.255 199.226 462.167 197.632 462.167 196.275V194.468M462.44 200.888C462.56 201.967 462.72 203.075 462.923 204.167M462.923 204.167C460.72 205.288 459.139 207.099 459.139 209.62C459.139 213.39 462.827 212.725 465.755 212.648C465.968 212.642 466.183 212.632 466.399 212.618M466.399 212.618C467.159 213.222 468.056 213.528 468.994 213.588M466.399 212.618C467.666 212.533 468.959 212.289 470.141 211.814M468.994 213.588C469.068 213.593 469.142 213.596 469.216 213.598M468.994 213.588C469.196 213.277 469.424 212.927 469.68 212.535C469.759 212.415 469.92 212.165 470.141 211.814M469.216 213.598C469.659 212.97 470.149 212.273 470.617 211.607M474.49 204.096C472.959 203.114 470.639 202.68 468.263 202.811M468.263 202.811C467.535 202.851 466.801 202.944 466.083 203.091M468.263 202.811C470.472 201.685 472.646 200.276 471.172 199.744M466.083 203.091C467.453 202.108 469.551 200.745 471.172 199.744M470.141 211.814C470.302 211.749 470.46 211.68 470.617 211.607M470.617 211.607C471.409 211.235 472.139 210.749 472.764 210.124C474.165 208.723 473.265 207.886 472.259 209.283C471.872 209.821 471.265 210.684 470.617 211.607ZM471.172 199.744C470.791 199.606 470.165 199.527 469.231 199.527M544.925 199.527C544.33 199.527 543.737 199.76 543.165 200.166M543.165 200.166C542.697 200.499 542.243 200.948 541.815 201.48M543.165 200.166C548.433 200.289 554.764 201.935 557.372 204.069C558.749 205.195 558.611 206.668 557.831 208.058M543.165 200.166C541.885 200.136 540.667 200.197 539.58 200.362M541.815 201.48C540.982 202.518 540.247 203.873 539.693 205.304M541.815 201.48C542.224 201.716 542.626 201.966 543.02 202.228M541.815 201.48C541.084 201.059 540.334 200.682 539.58 200.362M539.693 205.304C539.04 206.993 538.64 208.788 538.631 210.292M539.693 205.304C540.726 204.028 541.858 202.92 543.02 202.228M539.693 205.304C538.326 206.993 537.131 208.976 536.266 210.678M538.631 210.292C538.626 211.213 538.768 212.024 539.087 212.635M538.631 210.292C538.498 210.351 538.389 210.389 538.309 210.405C537.809 210.501 537.089 210.608 536.266 210.678M538.631 210.292C539.135 210.071 539.99 209.56 540.972 208.89M539.087 212.635C539.089 212.639 539.092 212.643 539.094 212.648C539.22 212.885 539.387 213.111 539.59 213.324M539.087 212.635C537.879 212.455 536.723 212.214 535.678 211.901M539.087 212.635C539.887 212.753 540.71 212.845 541.539 212.913M539.59 213.324C539.843 213.59 540.152 213.838 540.507 214.069M539.59 213.324C538.119 212.985 536.771 212.531 535.658 211.946M539.59 213.324C540.013 213.422 540.446 213.51 540.887 213.589M540.507 214.069C540.891 214.319 541.33 214.55 541.811 214.764M540.507 214.069C540.617 213.915 540.743 213.755 540.887 213.589M540.507 214.069C540.212 214.48 540.035 214.851 539.959 215.179M541.811 214.764C543.267 215.412 545.108 215.901 546.997 216.285M541.811 214.764C541.172 214.926 540.551 215.066 539.959 215.179M541.811 214.764C542.652 214.551 543.524 214.301 544.397 214.029M546.997 216.285C550.33 216.964 553.811 217.316 555.578 217.638C561.242 218.668 564.014 213.91 563.894 209.271M546.997 216.285C543.278 217.692 539.467 217.318 539.959 215.179M546.997 216.285C548.354 215.772 549.7 215.021 550.819 214.032M563.894 209.271C563.886 208.947 563.863 208.623 563.826 208.302M563.894 209.271C562.285 211.211 558.226 214.961 557.709 215.451C555.36 217.676 550.981 217.731 550.981 214.161C550.981 214.114 550.981 214.067 550.983 214.019M563.894 209.271C564.673 208.331 564.878 207.816 563.826 208.302M563.826 208.302C563.6 206.314 562.831 204.426 561.522 203.116C556.311 197.905 548.355 196.085 540.888 196.5C539.294 196.588 537.459 197.711 535.795 199.255M563.826 208.302C563.772 208.328 563.714 208.356 563.652 208.386C560.829 209.798 558.446 212.855 557.036 215.675M535.795 199.255C533.295 201.576 531.181 204.846 530.852 206.985C530.61 208.554 531.4 209.756 532.815 210.66M535.795 199.255C537.016 199.434 538.303 199.818 539.58 200.362M535.795 199.255C531.305 198.599 527.715 200.729 528.833 207.994C529.097 209.709 530.841 210.426 532.815 210.66M532.815 210.66C533.542 211.124 534.435 211.51 535.437 211.826M532.815 210.66C533.181 210.703 533.554 210.73 533.926 210.743M535.437 211.826C535.516 211.851 535.597 211.876 535.678 211.901M535.437 211.826C534.858 211.504 534.349 211.144 533.926 210.743M535.437 211.826C535.509 211.867 535.583 211.907 535.658 211.946M535.678 211.901C535.852 211.517 536.048 211.106 536.266 210.678M535.678 211.901C535.671 211.916 535.664 211.931 535.658 211.946M541.539 212.913C543.526 213.075 545.545 213.098 547.359 213.023M541.539 212.913C541.668 212.79 541.807 212.664 541.953 212.535C542.313 212.22 542.666 211.925 543.012 211.648M541.539 212.913C541.291 213.148 541.074 213.374 540.887 213.589M547.359 213.023C548.821 212.962 550.15 212.837 551.221 212.67M547.359 213.023C546.399 213.374 545.397 213.716 544.397 214.029M547.359 213.023C549.047 212.405 550.606 211.762 551.798 211.209M551.221 212.67C551.587 212.612 551.923 212.55 552.224 212.484M551.221 212.67C551.363 212.186 551.562 211.692 551.798 211.209M551.221 212.67C551.099 213.084 551.018 213.49 550.991 213.877M552.224 212.484C552.623 212.395 552.96 212.3 553.223 212.199C554.466 211.723 556.757 209.969 557.831 208.058M552.224 212.484C551.864 212.99 551.448 213.454 550.991 213.877M552.224 212.484C552.499 212.095 552.741 211.683 552.943 211.246C553.067 210.976 553.182 210.714 553.287 210.459M557.831 208.058C558.988 209.293 557.227 212.648 555.578 213.208C554.484 213.58 552.865 213.864 550.983 214.019M557.831 208.058C557.564 207.773 557.144 207.601 556.531 207.601C555.683 207.601 554.886 207.614 554.129 207.646M539.58 200.362C538.525 200.522 537.595 200.781 536.851 201.153C534.151 202.503 531.271 206.439 533.038 209.62C533.264 210.025 533.563 210.399 533.926 210.743M533.926 210.743C534.733 210.773 535.54 210.74 536.266 210.678M535.658 211.946C535.403 212.511 535.2 213.017 535.057 213.433C534.316 215.58 536.674 215.805 539.959 215.179M540.887 213.589C542.022 213.793 543.207 213.937 544.397 214.029M544.397 214.029C546.617 214.199 548.855 214.185 550.819 214.032M550.819 214.032C550.874 214.028 550.929 214.024 550.983 214.019M550.819 214.032C550.877 213.981 550.934 213.93 550.991 213.877M550.983 214.019C550.985 213.972 550.987 213.925 550.991 213.877M554.129 207.646C551.763 207.746 549.79 208.04 547.889 208.759M554.129 207.646C554.111 207.76 554.089 207.876 554.065 207.995M554.129 207.646C554.917 202.833 550.994 201.827 547.216 202.642M547.889 208.759C546.277 209.369 544.717 210.285 543.012 211.648M547.889 208.759C547.518 210.933 544.935 212.317 543.012 211.648M547.889 208.759C548.071 207.691 547.72 206.433 546.495 205.134C546.342 204.972 546.185 204.811 546.023 204.653M543.012 211.648C542.039 211.309 541.235 210.444 540.972 208.89M553.287 210.459C553.661 209.55 553.916 208.731 554.065 207.995M553.287 210.459C552.903 210.676 552.397 210.931 551.798 211.209M553.287 210.459C553.552 210.309 553.758 210.177 553.896 210.068C554.808 209.347 555.167 206.96 554.065 207.995M554.065 207.995C554.047 208.012 554.028 208.031 554.008 208.05C553.239 208.819 552.398 209.981 551.798 211.209M547.216 202.642C546.35 202.829 545.49 203.112 544.697 203.467M547.216 202.642C547.149 203.194 546.695 203.896 546.023 204.653M547.216 202.642C547.275 202.157 547.036 201.788 546.383 201.602C545.273 201.285 544.132 201.566 543.02 202.228M544.697 203.467C542.588 204.411 540.948 205.866 540.888 207.377C540.865 207.941 540.896 208.444 540.972 208.89M544.697 203.467C545.162 203.847 545.606 204.243 546.023 204.653M544.697 203.467C544.163 203.03 543.601 202.615 543.02 202.228M540.972 208.89C542.669 207.731 544.742 206.094 546.023 204.653M1619.36 629C1620 629 1620.61 629.37 1621.18 630.01M1621.18 630.01C1624.36 633.597 1626.28 645.649 1626.65 648.176C1627.63 655.062 1627.43 661.918 1627.43 668.865C1627.43 672.588 1629.11 679.935 1625.92 682.49C1620.23 687.036 1609.39 689.773 1601.86 691.349C1593.2 693.163 1582.53 691.574 1573.83 691.574C1557.5 691.574 1541.3 692.583 1524.99 692.583C1518.63 692.583 1495.85 696.191 1495.22 685.518C1494.73 677.172 1495.22 668.647 1495.22 660.287C1495.22 654.558 1495.6 652.593 1498.69 647.727L1498.72 647.688C1501.3 643.628 1505.41 637.167 1510.13 635.28C1520.76 631.029 1532.98 630.009 1544.34 630.009C1557.47 630.009 1570.12 627.674 1583.25 630.458C1595.48 633.052 1608.78 630.042 1621.18 630.01ZM1621.18 630.01C1621.24 630.009 1621.31 630.009 1621.37 630.009M1628.44 658.268C1617.98 658.268 1607.45 659.278 1596.93 659.278C1586.97 659.278 1577.04 658.706 1567.21 660.511C1559.18 661.987 1551.4 661.212 1543.38 663.258C1535.32 665.316 1526.3 666.223 1517.98 666.342C1511.06 666.441 1490.31 667.352 1497.24 667.352M1610.27 635.056C1610.27 638.206 1611.66 644.845 1609.04 646.942C1605.5 649.773 1593.56 648.813 1589.75 648.12C1587.73 647.752 1590.43 638.306 1591.66 637.523C1596.04 634.735 1603.65 634.315 1608.76 633.542C1611.6 633.112 1621.05 632.497 1613.3 634.046M1569.9 638.083C1573.06 638.083 1573.94 643.632 1573.94 646.382C1573.94 652.938 1572.94 652.213 1566.31 652.213C1559.29 652.213 1554.47 653.9 1547.59 655.465C1544.43 656.181 1532.57 660.69 1534.8 653.446C1536.08 649.296 1535.69 642.902 1538.84 639.878C1542.92 635.952 1550.39 635.056 1555.77 635.056C1561.08 635.056 1567.11 639.185 1571.92 641.111M1502.28 643.13C1506.47 642.711 1508.04 640.369 1511.98 642.12C1515.25 643.572 1522.47 647.959 1522.47 652.213C1522.47 656.917 1501.92 655.24 1498.25 655.24M1604.22 679.463C1606.51 679.463 1608.57 679.829 1610.27 680.621M1610.27 680.621C1610.27 680.621 1610.27 680.621 1610.27 680.621ZM1610.27 680.621C1613.39 682.07 1615.32 684.945 1615.32 689.611C1615.32 693.189 1615.51 695.371 1613.3 698.134C1610.79 701.272 1608.59 700.253 1604.78 701.161C1604.49 701.23 1604.21 701.29 1603.93 701.344M1610.27 680.621C1610.27 680.906 1610.27 681.188 1610.27 681.468M1610.27 680.621C1610.27 680.386 1610.27 680.149 1610.27 679.911L1610.27 680.621ZM1610.27 680.621L1610.27 681.468M1603.93 701.344C1603.88 701.354 1603.83 701.364 1603.77 701.374M1603.93 701.344C1605.31 703.483 1604.82 702.842 1603.77 701.374M1603.93 701.344C1603.79 701.122 1603.63 700.871 1603.45 700.588M1603.77 701.374C1591.27 703.683 1590.52 690.693 1597.94 683.275C1599.28 681.929 1601.86 682.49 1603.71 682.49C1606.28 682.49 1606.99 682.616 1607.18 684.204M1603.77 701.374C1603.6 701.135 1603.42 700.873 1603.22 700.598M1607.18 684.204C1607.23 684.672 1607.24 685.267 1607.24 686.023C1607.24 686.901 1607.27 687.758 1607.27 688.577M1607.18 684.204C1606.66 684.099 1606.31 684.799 1606.25 686.814M1607.18 684.204C1607.89 684.348 1608.93 686.024 1610 687.888M1607.27 688.577C1607.28 689.175 1607.27 689.752 1607.24 690.301M1607.27 688.577C1606.92 687.91 1606.57 687.292 1606.25 686.814M1607.27 688.577C1607.62 689.243 1607.97 689.957 1608.27 690.628M1607.24 690.301C1607.24 690.421 1607.23 690.54 1607.22 690.657M1607.24 690.301C1607.18 690.283 1607.11 690.265 1607.04 690.248M1607.24 690.301C1607.59 690.397 1607.94 690.506 1608.27 690.628M1607.22 690.657C1607.22 690.682 1607.22 690.707 1607.21 690.732M1607.22 690.657C1607.24 690.699 1607.26 690.74 1607.28 690.782M1607.22 690.657C1607.16 690.521 1607.1 690.384 1607.04 690.248M1607.21 690.732C1607.2 690.886 1607.19 691.037 1607.17 691.185M1607.21 690.732C1606.98 690.548 1606.69 690.331 1606.36 690.091M1607.21 690.732C1607.23 690.749 1607.26 690.765 1607.28 690.782M1607.17 691.185C1606.86 693.814 1605.71 695.611 1601.69 695.611C1601.18 695.611 1600.71 695.569 1600.3 695.492M1607.17 691.185C1607.31 691.242 1607.43 691.283 1607.52 691.309M1607.17 691.185C1607.12 691.167 1607.07 691.147 1607.02 691.125C1606.35 690.846 1605.26 690.362 1604.18 689.811M1600.3 695.492C1597.96 695.057 1597.11 693.487 1597.2 691.684M1600.3 695.492C1601.1 696.877 1601.83 698.071 1602.3 698.813M1600.3 695.492C1599.51 694.128 1598.66 692.579 1597.95 691.096M1597.2 691.684C1597.23 691.172 1597.33 690.641 1597.49 690.112M1597.2 691.684C1596.53 692.327 1596.14 693.132 1596.14 694.097C1596.14 697.743 1599.89 700.674 1603.22 700.598M1597.2 691.684C1597.42 691.47 1597.67 691.274 1597.95 691.096M1597.49 690.112C1597.97 688.592 1598.97 687.088 1600.19 686.093M1597.49 690.112C1597.64 690.435 1597.79 690.764 1597.95 691.096M1597.49 690.112C1595.88 686.488 1595.4 683.631 1599.17 685.518C1599.4 685.631 1599.75 685.832 1600.19 686.093M1600.19 686.093C1601.85 684.746 1603.93 684.332 1605.68 686.079C1605.84 686.246 1606.04 686.5 1606.25 686.814M1600.19 686.093C1600.51 686.282 1600.88 686.502 1601.27 686.744M1606.25 686.814C1606.24 687.038 1606.24 687.279 1606.24 687.536C1606.24 688.121 1606.58 689.168 1607.04 690.248M1608.27 690.628C1608.68 691.533 1609.01 692.361 1609.16 692.886M1608.27 690.628C1608.7 690.785 1609.12 690.965 1609.52 691.167M1609.16 692.886C1609.18 692.959 1609.19 693.027 1609.21 693.087C1609.41 693.984 1609.26 694.09 1608.95 693.736M1609.16 692.886C1609.29 692.322 1609.41 691.747 1609.52 691.167M1609.16 692.886C1609.09 693.173 1609.02 693.456 1608.95 693.736M1608.95 693.736C1608.6 693.342 1608.04 692.382 1607.52 691.309M1608.95 693.736C1608.5 695.429 1607.94 696.981 1607.24 698.19C1606.91 698.782 1606.5 699.254 1606.04 699.618M1607.52 691.309C1607.44 691.135 1607.36 690.959 1607.28 690.782M1607.52 691.309C1607.97 691.435 1607.8 691.209 1607.28 690.782M1607.04 690.248C1606.81 690.19 1606.59 690.138 1606.36 690.091M1610 687.888C1611.11 689.832 1612.25 691.98 1613.08 692.807C1613.65 693.379 1611.57 689.067 1611.34 688.49C1610.4 686.138 1610.28 683.872 1610.27 681.468M1610 687.888C1610.18 686.226 1610.27 684.632 1610.27 683.275V681.468M1610 687.888C1609.88 688.967 1609.72 690.075 1609.52 691.167M1609.52 691.167C1611.72 692.288 1613.3 694.099 1613.3 696.62C1613.3 700.39 1609.61 699.725 1606.68 699.648C1606.47 699.642 1606.26 699.632 1606.04 699.618M1606.04 699.618C1605.28 700.222 1604.38 700.528 1603.45 700.588M1606.04 699.618C1604.77 699.533 1603.48 699.289 1602.3 698.813M1603.45 700.588C1603.37 700.593 1603.3 700.596 1603.22 700.598M1603.45 700.588C1603.24 700.277 1603.02 699.927 1602.76 699.535C1602.68 699.415 1602.52 699.165 1602.3 698.813M1603.22 700.598C1602.78 699.97 1602.29 699.273 1601.82 698.607M1597.95 691.096C1599.48 690.114 1601.8 689.68 1604.18 689.811M1604.18 689.811C1604.9 689.851 1605.64 689.944 1606.36 690.091M1604.18 689.811C1601.97 688.685 1599.79 687.276 1601.27 686.744M1606.36 690.091C1604.99 689.108 1602.89 687.745 1601.27 686.744M1602.3 698.813C1602.14 698.749 1601.98 698.68 1601.82 698.607M1601.82 698.607C1601.03 698.235 1600.3 697.749 1599.68 697.124C1598.27 695.723 1599.17 694.886 1600.18 696.283C1600.57 696.821 1601.17 697.684 1601.82 698.607ZM1601.27 686.744C1601.65 686.606 1602.27 686.527 1603.21 686.527M1527.51 686.527C1528.11 686.527 1528.7 686.76 1529.27 687.166M1529.27 687.166C1529.74 687.499 1530.2 687.948 1530.62 688.48M1529.27 687.166C1524.01 687.289 1517.68 688.935 1515.07 691.069C1513.69 692.195 1513.83 693.668 1514.61 695.058M1529.27 687.166C1530.55 687.136 1531.77 687.197 1532.86 687.362M1530.62 688.48C1531.46 689.518 1532.19 690.873 1532.75 692.304M1530.62 688.48C1530.22 688.716 1529.81 688.966 1529.42 689.228M1530.62 688.48C1531.35 688.059 1532.11 687.682 1532.86 687.362M1532.75 692.304C1533.4 693.993 1533.8 695.788 1533.81 697.292M1532.75 692.304C1531.71 691.028 1530.58 689.92 1529.42 689.228M1532.75 692.304C1534.11 693.993 1535.31 695.976 1536.17 697.678M1533.81 697.292C1533.81 698.212 1533.67 699.024 1533.35 699.635M1533.81 697.292C1533.94 697.351 1534.05 697.389 1534.13 697.405C1534.63 697.501 1535.35 697.608 1536.17 697.678M1533.81 697.292C1533.3 697.071 1532.45 696.56 1531.47 695.89M1533.35 699.635C1533.35 699.639 1533.35 699.643 1533.35 699.648C1533.22 699.885 1533.05 700.111 1532.85 700.324M1533.35 699.635C1534.56 699.455 1535.72 699.214 1536.76 698.901M1533.35 699.635C1532.55 699.753 1531.73 699.845 1530.9 699.913M1532.85 700.324C1532.6 700.59 1532.29 700.838 1531.93 701.069M1532.85 700.324C1534.32 699.985 1535.67 699.531 1536.78 698.946M1532.85 700.324C1532.43 700.422 1531.99 700.51 1531.55 700.589M1531.93 701.069C1531.55 701.319 1531.11 701.55 1530.63 701.764M1531.93 701.069C1531.82 700.915 1531.7 700.755 1531.55 700.589M1531.93 701.069C1532.23 701.48 1532.4 701.851 1532.48 702.179M1530.63 701.764C1529.17 702.412 1527.33 702.901 1525.44 703.285M1530.63 701.764C1531.27 701.926 1531.89 702.066 1532.48 702.179M1530.63 701.764C1529.79 701.551 1528.92 701.302 1528.04 701.029M1525.44 703.285C1522.11 703.964 1518.63 704.316 1516.86 704.638C1511.2 705.668 1508.43 700.91 1508.55 696.271M1525.44 703.285C1529.16 704.692 1532.97 704.318 1532.48 702.179M1525.44 703.285C1524.08 702.772 1522.74 702.021 1521.62 701.032M1508.55 696.271C1508.55 695.947 1508.58 695.623 1508.61 695.302M1508.55 696.271C1510.15 698.211 1514.21 701.961 1514.73 702.451C1517.08 704.676 1521.46 704.731 1521.46 701.161C1521.46 701.114 1521.46 701.067 1521.46 701.019M1508.55 696.271C1507.77 695.331 1507.56 694.816 1508.61 695.302M1508.61 695.302C1508.84 693.314 1509.61 691.426 1510.92 690.116C1516.13 684.905 1524.08 683.085 1531.55 683.5C1533.15 683.588 1534.98 684.711 1536.64 686.255M1508.61 695.302C1508.67 695.328 1508.73 695.356 1508.79 695.386C1511.61 696.798 1513.99 699.855 1515.4 702.675M1536.64 686.255C1539.14 688.576 1541.26 691.846 1541.59 693.985C1541.83 695.554 1541.04 696.756 1539.62 697.66M1536.64 686.255C1535.42 686.434 1534.14 686.818 1532.86 687.362M1536.64 686.255C1541.13 685.599 1544.72 687.729 1543.61 694.994C1543.34 696.709 1541.6 697.426 1539.62 697.66M1539.62 697.66C1538.9 698.124 1538 698.51 1537 698.826M1539.62 697.66C1539.26 697.703 1538.89 697.73 1538.51 697.743M1537 698.826C1536.92 698.851 1536.84 698.876 1536.76 698.901M1537 698.826C1537.58 698.504 1538.09 698.144 1538.51 697.743M1537 698.826C1536.93 698.867 1536.86 698.907 1536.78 698.946M1536.76 698.901C1536.59 698.517 1536.39 698.106 1536.17 697.678M1536.76 698.901C1536.77 698.916 1536.77 698.931 1536.78 698.946M1530.9 699.913C1528.91 700.075 1526.89 700.098 1525.08 700.023M1530.9 699.913C1530.77 699.79 1530.63 699.664 1530.49 699.535C1530.13 699.22 1529.77 698.925 1529.43 698.648M1530.9 699.913C1531.15 700.148 1531.36 700.374 1531.55 700.589M1525.08 700.023C1523.62 699.962 1522.29 699.837 1521.22 699.67M1525.08 700.023C1526.04 700.374 1527.04 700.716 1528.04 701.029M1525.08 700.023C1523.39 699.405 1521.83 698.762 1520.64 698.209M1521.22 699.67C1520.85 699.612 1520.52 699.55 1520.22 699.484M1521.22 699.67C1521.08 699.186 1520.88 698.692 1520.64 698.209M1521.22 699.67C1521.34 700.084 1521.42 700.49 1521.45 700.877M1520.22 699.484C1519.82 699.395 1519.48 699.3 1519.22 699.199C1517.97 698.723 1515.68 696.969 1514.61 695.058M1520.22 699.484C1520.58 699.99 1520.99 700.454 1521.45 700.877M1520.22 699.484C1519.94 699.095 1519.7 698.683 1519.5 698.246C1519.37 697.977 1519.26 697.714 1519.15 697.459M1514.61 695.058C1513.45 696.293 1515.21 699.648 1516.86 700.208C1517.96 700.58 1519.57 700.864 1521.46 701.019M1514.61 695.058C1514.87 694.773 1515.3 694.601 1515.91 694.601C1516.76 694.601 1517.55 694.614 1518.31 694.646M1532.86 687.362C1533.91 687.522 1534.84 687.781 1535.59 688.153C1538.29 689.503 1541.17 693.439 1539.4 696.62C1539.18 697.025 1538.88 697.399 1538.51 697.743M1538.51 697.743C1537.71 697.773 1536.9 697.74 1536.17 697.678M1536.78 698.946C1537.04 699.511 1537.24 700.017 1537.38 700.433C1538.12 702.58 1535.77 702.805 1532.48 702.179M1531.55 700.589C1530.42 700.793 1529.23 700.937 1528.04 701.029M1528.04 701.029C1525.82 701.199 1523.58 701.185 1521.62 701.032M1521.62 701.032C1521.57 701.028 1521.51 701.024 1521.46 701.019M1521.62 701.032C1521.56 700.981 1521.51 700.93 1521.45 700.877M1521.46 701.019C1521.45 700.972 1521.45 700.925 1521.45 700.877M1518.31 694.646C1520.68 694.746 1522.65 695.04 1524.55 695.759M1518.31 694.646C1518.33 694.76 1518.35 694.876 1518.37 694.995M1518.31 694.646C1517.52 689.833 1521.45 688.827 1525.22 689.642M1524.55 695.759C1526.16 696.369 1527.72 697.285 1529.43 698.648M1524.55 695.759C1524.92 697.933 1527.5 699.317 1529.43 698.648M1524.55 695.759C1524.37 694.692 1524.72 693.433 1525.94 692.134C1526.1 691.972 1526.25 691.811 1526.42 691.653M1529.43 698.648C1530.4 698.309 1531.2 697.444 1531.47 695.89M1519.15 697.459C1518.78 696.55 1518.52 695.731 1518.37 694.995M1519.15 697.459C1519.54 697.676 1520.04 697.931 1520.64 698.209M1519.15 697.459C1518.89 697.309 1518.68 697.177 1518.54 697.068C1517.63 696.347 1517.27 693.96 1518.37 694.995M1518.37 694.995C1518.39 695.012 1518.41 695.031 1518.43 695.05C1519.2 695.819 1520.04 696.981 1520.64 698.209M1525.22 689.642C1526.09 689.829 1526.95 690.112 1527.74 690.467M1525.22 689.642C1525.29 690.194 1525.74 690.896 1526.42 691.653M1525.22 689.642C1525.16 689.157 1525.4 688.788 1526.06 688.602C1527.17 688.285 1528.31 688.566 1529.42 689.228M1527.74 690.467C1529.85 691.411 1531.49 692.866 1531.55 694.377C1531.57 694.941 1531.54 695.444 1531.47 695.89M1527.74 690.467C1527.28 690.847 1526.83 691.243 1526.42 691.653M1527.74 690.467C1528.28 690.03 1528.84 689.615 1529.42 689.228M1531.47 695.89C1529.77 694.731 1527.7 693.094 1526.42 691.653M275.773 93.9003C275.773 82.7904 275.591 71.3372 276.845 60.6739C277.313 56.696 288.71 71.4957 290.541 74.6076C293.355 79.3914 299.853 82.515 302.331 87.4694C305.419 93.6456 308.616 83.8945 311.739 82.1103C315.884 79.7415 318.697 75.8186 322.397 72.9403C325.302 70.6813 329.162 69.1993 332.937 70.5585C335.402 71.446 332.66 77.4502 332.58 78.8948C332.195 85.8229 326.013 91.9376 323.767 98.4258C322.984 100.687 320.79 103.903 320.79 106.226C320.79 110.328 324.387 113.596 326.149 116.944C328.636 121.67 330.546 126.618 332.818 131.414C334.799 135.597 334.616 135.398 331.448 133.022C324.465 127.784 316.591 123.832 308.404 121.649C304.981 120.736 300.379 118.651 297.21 117.242C292.167 115.001 292.523 118.28 290.243 122.839C288.927 125.471 281.962 142.311 279.822 142.132C273.834 141.633 273.897 120.959 273.63 116.409C273.463 113.583 263.057 120.526 261.304 121.172C255.408 123.344 249.338 123.072 243.202 121.708C241.734 121.382 248.724 115.575 249.573 114.503C252.492 110.816 258.892 108.708 263.328 107.358C268.274 105.852 274.208 101.813 275.773 97.1158M644.455 101.373C646.856 101.64 649.1 102.02 651.329 102.387M651.329 102.387C654.872 102.969 658.381 103.517 662.438 103.517H682.564C689.513 103.517 698.001 102.908 704.715 104.827C715.427 107.887 715.7 97.9318 720.316 90.2975C724.372 83.5897 729.923 77.4393 732.582 70.052C733.696 66.9574 734.453 63.9725 736.393 61.4774C737.225 60.4077 731.337 60.6438 730.796 60.6438H715.791C690.97 60.6438 666.265 58.5002 641.775 58.5002H628.914C624.794 58.5002 628.449 69.0622 629.509 71.0047C633.36 78.0649 639.187 82.4977 643.324 89.047C645.558 92.5844 648.027 98.7822 651.329 102.387ZM651.329 102.387C652.193 103.329 653.113 104.094 654.101 104.588M645.527 59.572C645.527 54.7447 644.192 47.8319 646.36 43.4947C647.359 41.4971 652.091 42.4228 654.101 42.4228H668.035C676.08 42.4228 683.356 46.7101 691.615 46.7101H714.123C715.712 46.7101 721.339 45.8274 722.46 46.9483C724.005 48.4941 722.698 56.4082 722.698 58.5001M657.317 49.9256C655.631 50.1363 656.151 51.0234 657.14 51.5884M657.14 51.5884C657.63 51.8684 658.236 52.0692 658.746 52.0692C659.38 52.0692 658.104 51.9419 657.14 51.5884ZM657.14 51.5884C656.725 51.436 656.367 51.2417 656.245 50.9974M668.311 50.7936C668.311 51.3886 668.735 51.5772 669.143 51.9338C669.455 52.2069 669.489 51.3714 669.489 51.2096M685.228 53.2896C685.201 53.0228 684.124 52.6531 684.011 52.8505C683.965 52.9313 684.439 53.2203 684.535 53.2203M705.473 54.1216C705.501 54.3752 706.026 54.2281 706.182 54.3835C706.261 54.4625 706.305 54.7534 706.305 54.5376M708.138 44.7303V40.61C708.138 37.4209 707.743 34.2826 707.884 31.0849C707.982 28.8749 708.508 26.6816 708.59 24.4784C708.605 24.0773 708.486 23.4551 708.603 23.0477C708.66 22.8453 709.772 23.3502 709.849 23.3784C711.698 24.0566 713.582 24.6087 715.413 25.3368C716.094 25.6077 716.824 25.707 717.504 25.9663C718.185 26.2254 718.83 26.5293 719.533 26.7357C720.862 27.1258 722.224 27.4406 723.564 27.7912C723.812 27.8561 724.09 27.8442 724.327 27.912C724.442 27.945 723.51 28.2671 723.424 28.2999C722.091 28.8092 720.74 29.3185 719.387 29.7814C718.016 30.2505 716.571 30.7241 715.171 31.1104C712.908 31.7345 710.903 33.1157 708.596 33.6283M187.732 297.721C187.512 297.721 187.29 297.719 187.065 297.715M187.065 297.715C178.957 297.587 167.238 295.279 160.442 299.876C152.134 305.496 151.528 314.591 152.324 324.139C153.583 339.255 165.614 349.607 176.999 357.987C181.785 361.51 186.854 362.982 192.868 363.399C202.655 364.078 219.236 360.464 225.524 352.025C230.078 345.913 234.757 333.981 231.074 326.616C225.823 316.113 214.601 309.7 204.61 304.371C198.956 301.356 193.078 299.39 187.065 297.715ZM187.065 297.715C183.956 296.849 180.81 296.06 177.641 295.244C172.602 293.946 166.815 293.732 162.139 296.069M151.406 351.383C148.281 351.695 143.926 354.811 141.224 356.336C138.869 357.665 134.448 359.706 133.244 362.115M165.441 363.766C161.587 368.102 162.809 385.605 167.918 386.882M221.58 367.894C221.58 371.794 221.729 383.242 225.708 385.231M239.742 348.08C242.056 348.338 253.777 355.263 253.777 353.034M221.58 306.802C225.371 303.01 232.925 297.959 233.963 292.767M183.604 283.686C183.604 278.419 184.429 273.217 184.429 268M132.418 294.418C130.799 294.094 129.445 292.456 128.199 291.483C124.566 288.645 121.022 287.393 116.503 286.621C113.018 286.026 109.522 286.163 106 286.163M129.942 324.139C124.514 324.139 118.004 324.392 113.43 327.441M550.102 880.999C545.519 875.843 540.962 870.654 537.22 864.625C534.37 860.033 532.363 855.129 530.321 850.14C528.652 846.059 529.348 840.334 526.915 836.685M547.526 882.03C543.524 878.028 538.372 875.469 534.157 871.781C532.714 870.518 530.74 869.415 529.577 867.888C527.883 865.665 525.968 862.773 523.823 861.018C517.918 856.186 514.215 849.417 510.941 842.869M525.369 837.716C531.396 837.716 534.27 828.279 535.674 823.803C537.109 819.23 536.19 813.39 536.19 808.631C536.19 801.41 535.424 793.974 532.869 787.161C529.417 777.955 524.214 774.48 514.205 773.936C503.289 773.343 491.549 775.025 482.028 780.864C478.097 783.274 474.37 785.938 470.921 788.993C467.957 791.62 466.442 794.093 464.337 797.352C461.621 801.56 458.442 805.499 457.095 810.349C455.269 816.923 457.537 821.898 459.872 828.069C462.137 834.056 464.059 836.855 469.376 840.492C475.405 844.618 486.546 845.845 493.622 845.416C499.141 845.082 504.898 842.478 509.911 840.807M1540 578.739C1540 571.132 1542.37 563.833 1544.19 556.542C1544.89 553.737 1544.75 550.532 1545.98 547.938C1546.33 547.203 1546.33 546.165 1546.33 545.347M1570.51 583.057C1570.51 579.423 1571.8 575.871 1572.9 572.454C1574.13 568.608 1575.49 564.819 1576.81 561.004C1577.9 557.867 1578.67 554.677 1579.92 551.584C1580.5 550.127 1580.99 548.682 1581.29 547.138C1581.4 546.593 1581.4 546.263 1581.74 545.923M1546.33 544.772C1545.72 544.695 1544.95 539.696 1544.91 539.174C1544.59 535.199 1544.32 531.285 1544.32 527.212C1544.32 520.091 1546.55 513.053 1549.85 506.774C1551.53 503.577 1553.92 500.705 1556.6 498.298C1558.64 496.466 1560.44 494.972 1563.32 494.972M1584.62 545.923C1584.62 544.013 1590.38 543.501 1591.62 543.172C1593.9 542.568 1595.66 542.797 1596.58 540.534C1597.06 539.352 1597.76 538.213 1598.15 536.999C1598.67 535.341 1598.49 533.379 1598.72 531.658C1599.21 528.016 1599.3 524.201 1599.3 520.527C1599.3 518.85 1599.59 517.214 1599.59 515.554C1599.59 513.797 1597.97 510.917 1596.93 509.525C1594.85 506.724 1592.49 503.972 1589.61 501.992C1588.31 501.103 1585.94 500.204 1585.19 498.714M1552.09 511.38C1554.88 511.38 1559.4 510.42 1561.73 512.243C1562.89 513.148 1563.93 514.431 1564.88 515.554C1565.64 516.448 1565.33 518.103 1565.33 519.184C1565.33 523.135 1563.8 522.894 1560.44 522.894C1559.65 522.894 1557.9 523.236 1557.27 522.606C1556.89 522.229 1556.88 521.69 1556.41 521.455M1563.32 494.108C1562.97 489.981 1561.76 485.987 1561.17 481.89C1560.47 476.967 1560.73 471.943 1560.73 466.985C1560.73 463.442 1561.58 460.208 1564.44 457.87C1566.67 456.044 1567.59 457.352 1568.56 459.405C1570.37 463.225 1571.48 466.526 1571.95 470.743C1572.19 472.902 1572.82 474.852 1572.82 477.06V485.408C1572.82 489.225 1571.77 492.918 1571.39 496.683C1571.38 496.786 1571.37 496.883 1571.36 496.973M1571.36 496.973C1571.19 498.203 1570.85 498.206 1571.36 496.973ZM1571.36 496.973C1571.4 496.869 1571.45 496.756 1571.5 496.635C1572.48 494.494 1573.66 492.35 1574.8 490.27C1577.43 485.442 1580.14 481.207 1584.3 477.508C1587.46 474.697 1591.33 471.515 1595.25 469.8C1599.46 467.958 1599.14 478.431 1598.85 479.939C1597.83 485.181 1594.1 489.521 1590.97 493.628C1590.07 494.801 1588.46 496.602 1587.21 497.339C1586.17 497.949 1584.71 499.155 1584.04 500.153M1590.49 509.32C1588.86 509.32 1587.02 510.618 1585.83 511.652C1584.54 512.785 1583.92 513.973 1583.38 515.468C1582.99 516.572 1583.15 517.887 1583.82 518.754C1584.14 519.163 1584.68 519.144 1585.02 519.449C1585.87 520.216 1584.76 520.088 1583.78 520.45C1580.85 521.542 1575.22 521.999 1575.22 526.115C1575.22 527.611 1575.12 529.32 1576.49 530.261C1578.23 531.457 1579.88 532.757 1581.98 533.536C1583.72 534.179 1585.49 533.702 1587.27 533.924C1587.89 534.002 1588.46 534.912 1589 535.185M56.2013 802.403C56.2013 789.858 50.4391 778.229 52.4112 765.585C53.1506 760.844 54.8889 744.55 62.6987 745.01C64.6501 745.124 67.4356 752.454 67.8726 753.703C69.0131 756.961 69.7376 761.047 69.7376 764.502C69.7376 766.905 68.9843 768.931 68.6246 771.27C68.4615 772.33 68.1132 773.149 68.1132 774.248C68.1132 775.973 75.6851 770.584 76.5358 770.036C79.5035 768.125 82.4641 766.283 85.1388 763.99C85.7173 763.494 86.8902 762.92 87.5753 763.72C89.5525 766.026 88.2956 769.554 88.1468 772.082C88.0765 773.278 87.5061 774.35 86.7932 775.301C85.1975 777.428 84.3682 779.871 82.7624 782.039C81.2584 784.069 80.3111 788.122 77.9796 789.288C75.5963 790.48 73.3029 793.79 71.1213 795.575C69.4011 796.982 67.3371 797.661 65.406 798.733C62.5992 800.293 60.0599 802.098 57.2842 803.486M967.887 39.9602C967.887 32.5037 964.751 24.6562 966.595 17.2375C967.092 15.2376 967.917 13.3457 968.284 11.3084C968.602 9.54495 968.593 7.77981 969.079 6.04178C969.484 4.59769 969.952 3.88852 970.719 2.69631C971.728 1.12592 974.036 2.55985 974.81 3.59064C977.355 6.98477 976.83 12.0813 976.83 16.1279C976.83 16.601 975.943 17.681 976.366 17.4694C978.736 16.2847 980.761 14.471 983.173 13.2958C984.735 12.5347 985.099 11.6695 985.475 13.6933C985.877 15.8547 985.838 17.6692 985.111 19.7218C983.968 22.9452 981.874 26.0564 980.093 28.9632C978.213 32.0304 976.414 35.3372 973.601 37.6581C971.919 39.0453 969.714 39.8937 967.721 40.7221C965.854 41.4983 964.518 42.8162 962.819 43.8357M978.022 43.8357C978.157 42.4927 978.812 41.0356 979.38 39.8443C980.794 36.8813 982.022 33.784 983.554 30.8844C984.556 28.9873 985.855 26.9276 987.628 25.6509C988.701 24.8788 990.213 24.9526 990.609 26.6115C991.054 28.4717 990.242 30.4756 989.062 32.25M989.062 32.25C988.212 33.5283 987.171 34.6874 986.27 35.588C985.792 36.0657 988.011 33.1532 988.489 32.7393C988.612 32.633 988.811 32.4601 989.062 32.25ZM989.062 32.25C990.286 31.2257 992.752 29.3168 993.723 29.9238C994.6 30.4723 993.959 33.3901 993.822 34.0974C993.485 35.8389 992.609 37.3452 991.586 38.7678C989.622 41.5006 986.002 42.8197 982.776 43.521C980.093 44.1043 977.216 45.3263 974.445 45.3263M952.683 74.5411C951.823 73.5737 951.802 71.5581 951.673 70.3841C951.327 67.2327 951.379 64.0954 952.385 61.0764C953.641 57.3078 954.491 53.8195 957.387 50.9241C958.096 50.2144 958.062 53.9793 958.032 54.4352C957.943 55.8204 957.784 57.3299 957.453 58.675C957.091 60.1442 958.251 58.6854 958.778 58.1781C959.733 57.2578 960.728 56.394 961.659 55.462C962.768 54.354 962.762 55.9228 962.802 56.8201C962.935 59.8136 963.557 63.9979 961.991 66.724C959.517 71.0297 955.568 73.9633 952.55 77.8038C952.306 78.1143 950 80.5411 950 80.5033M971.464 76.0317C971.882 75.3349 972.29 74.6192 972.691 73.8904M972.691 73.8904C975.688 68.4502 978.35 62.2878 982.594 57.9297C983.616 56.8797 985.161 55.7354 986.635 55.462C987.849 55.2367 992.395 54.6649 993.044 56.1079C993.403 56.9047 993.358 58.3686 993.044 59.1719C992.879 59.5931 992.61 59.9985 992.398 60.3974C992.263 60.6518 991.655 61.0563 991.934 61.1261C993.802 61.5931 996.329 59.6356 998.294 59.6356C999.86 59.6356 998.785 63.3864 998.576 63.9748C997.833 66.0632 996.603 67.5357 994.915 69.0095C991.692 71.8243 988 72.1153 983.869 72.7359C980.135 73.2968 976.404 73.5346 972.691 73.8904ZM972.691 73.8904C969.382 74.2075 966.087 74.6184 962.819 75.4355M898.875 864.533C903.329 864.255 907.115 852.977 908.211 849.687C911.021 841.258 911.272 814.324 911.272 823.209M923.67 864.533C923.457 862.618 920.1 858.734 919.193 856.919C917.656 853.844 918.849 847.529 918.849 844.024C918.849 836.813 919.148 829.523 919.537 822.521C919.632 820.818 925.335 821.7 927.419 821.105C929.813 820.421 933.057 815.43 931.781 812.878C931.423 812.162 930.272 810.806 929.112 809.73M929.112 809.73C928.257 808.936 927.397 808.294 926.846 808.172C926.045 807.994 927.957 809.861 929.112 809.73ZM929.112 809.73C929.438 809.693 929.703 809.497 929.83 809.052C931.127 804.511 926.819 798.654 924.358 795.316C923.904 794.699 921.794 790.406 920.424 791.638M920.424 791.638C920.409 791.652 920.394 791.666 920.379 791.681C919.568 792.491 921.298 794.971 921.45 794.818C922.766 793.503 922.001 792.327 920.424 791.638ZM920.424 791.638C918.003 790.581 913.666 790.673 912 793.173C910.62 795.242 910.019 795.879 909.913 798.137M909.913 798.137C909.901 798.387 909.895 798.657 909.895 798.951C909.895 800.782 912.65 801.112 912.65 799.792C912.65 799.282 911.495 798.635 909.913 798.137ZM909.913 798.137C906.011 796.911 899.513 796.599 901.324 801.514C902.184 803.848 904.73 803.925 902.472 803.925C899.152 803.925 897.613 803.665 896.273 806.68C895.037 809.461 898.279 810.123 900.253 810.123C904.238 810.123 904.376 809.402 901.669 811.883C901.109 812.396 899.617 816.068 900.406 816.858C901.155 817.607 904.755 817.011 905.763 817.011C907.988 817.011 906.496 818.738 907.676 819.919C908.62 820.863 909.458 821.269 910.584 821.832M1408.81 47.0587L1425.14 61.9144L1447.22 61.8037L1438.14 81.9285L1445.07 102.892L1423.12 100.474L1405.32 113.541L1400.84 91.9222L1382.91 79.0343L1402.09 68.0909L1408.81 47.0587ZM319.311 672.5L320.356 694.554L336.046 710.088L315.394 717.897L305.469 737.619L291.661 720.391L269.837 717.047L281.954 698.59L278.391 676.801L299.689 682.622L319.311 672.5Z" stroke="#A3A3A3" stroke-width="3" stroke-linecap="round"/>
</svg>
