<svg width="1285" height="948" viewBox="0 0 1285 948" fill="none" xmlns="http://www.w3.org/2000/svg">
<path d="M547.731 327.879C545.586 333.868 541.489 339.297 538.385 344.789C531.519 356.935 523.662 368.761 517.338 381.185C516.048 383.721 514.479 387.56 512.7 389.745C510.842 392.028 517.639 392.389 518.515 392.389H533.781C535.909 392.389 538.136 392.187 540.254 392.389C542.154 392.571 536.971 400.135 536.862 400.323C527.855 415.757 515.392 427.471 503.008 439.92C502.158 440.774 501.395 443.81 501 445M507.231 443.121C514.878 440.101 520.41 434.111 527.031 429.481C534.624 424.172 542.36 418.896 550.223 414.032C556.969 409.859 563.548 403.248 567.877 396.565C568.811 395.123 570.57 393.124 572.031 392.389M548.354 374.226C551.402 374.226 582 373.746 582 374.853C582 377.047 577.168 383.817 575.146 385.013C572.683 386.469 571.077 389.998 569.677 392.389C568.897 393.722 567.528 394.695 567.046 396.147M548.977 370.468C550.089 368.093 550.223 365.87 550.223 363.266C550.223 358.462 551.887 353.782 552.092 349.035C552.333 343.464 554.585 338.238 554.585 332.576C554.585 330.517 554.064 327.724 555.208 326" stroke="#A3A3A3" stroke-width="3" stroke-linecap="round"/>
<path d="M1177.19 138.546C1177.19 146.985 1174.74 155.428 1173.94 163.889C1172.98 174.16 1171.84 184.434 1171.08 194.672C1170.86 197.668 1171.34 205.91 1169.34 208.409C1166.41 212.072 1170.68 214.473 1173.72 214.184C1189.61 212.67 1205.6 210.203 1221.71 210.203C1233.28 210.203 1244.85 210.203 1256.42 210.203C1260.78 210.203 1258.94 203.563 1258.94 200.222C1258.94 193.531 1258.94 186.84 1258.94 180.15C1258.94 175.952 1258.45 171.409 1259 167.254C1259.68 162.162 1261.97 157.724 1261.97 152.451C1261.97 150.844 1261.97 149.237 1261.97 147.629C1261.97 146.723 1263.02 143.794 1262.36 143.648C1252.71 141.502 1241.64 142.583 1231.81 142.583C1217.41 142.583 1203.38 143.725 1189.02 144.545C1183.4 144.867 1177.54 143.813 1172.15 145.611" stroke="#A3A3A3" stroke-width="3" stroke-linecap="round"/>
<path d="M1192.33 209.194C1189.68 208.53 1191.32 190.726 1191.32 188.111C1191.32 182.863 1191.98 178.38 1193.4 173.421C1193.85 171.837 1197.69 166.97 1198.89 166.3C1201.41 164.901 1206.14 165.796 1208.99 165.796C1213.52 165.796 1215.55 179.811 1215.55 183.962C1215.55 192.326 1214.54 200.228 1214.54 208.184" stroke="#A3A3A3" stroke-width="3" stroke-linecap="round"/>
<path d="M1234.72 157.722C1234.72 163.854 1233.71 169.767 1233.71 175.888C1233.71 180.112 1249.3 178.076 1250.87 175.328C1252.94 171.701 1257.57 155.703 1252.38 155.703C1246.16 155.703 1239.94 155.703 1233.71 155.703" stroke="#A3A3A3" stroke-width="3" stroke-linecap="round"/>
<path d="M1247.84 162.768C1244.76 163.153 1244.34 168.675 1242.57 170.618C1237.28 176.443 1246.77 168.583 1248.29 167.31C1252.24 163.989 1253.29 158.897 1248.29 164.899C1245.42 168.343 1237.78 178.678 1241.79 176.673C1245.14 174.995 1248.21 168.536 1249.86 165.235C1250.89 163.182 1248.49 170.274 1246.38 171.178C1246.16 171.276 1246.44 162.6 1247.62 161.422C1249.71 159.333 1247.09 167.441 1247.9 170.281C1248.22 171.425 1253.3 164.28 1253.22 164.506C1253.04 165.06 1249.48 172.512 1249.08 172.412C1247.94 172.129 1249.7 167.444 1249.86 166.917C1250.5 164.841 1251.62 158.452 1250.81 160.469C1250.23 161.934 1243.78 174.884 1243.02 174.206C1240.87 172.3 1247 161.77 1246.83 158.731C1246.81 158.291 1238.5 168.778 1237.24 170.73C1236.14 172.442 1235.58 171.312 1235.79 169.833C1236.12 167.468 1238.27 165.308 1239.32 163.217C1240.24 161.366 1242.74 155.867 1241.28 157.329C1239.62 158.987 1238.24 164.6 1237.75 166.805C1237.21 169.223 1237 169.143 1238.76 167.254C1241.94 163.845 1244.12 158.872 1246.61 154.918C1250.34 148.992 1240.46 162.53 1239.32 164.226C1239.05 164.628 1235.33 170.508 1234.95 170.169C1233.35 168.749 1236.15 163.941 1236.74 162.768C1239.34 157.568 1240.62 154.098 1235.34 160.189C1232.9 163.005 1232.35 165.04 1236.52 162.319C1246.22 155.972 1227.73 187.924 1243.58 172.076C1247.46 168.199 1241.05 175.311 1240.22 176.673C1237.67 180.805 1246.64 167.601 1247.73 165.908C1253.3 157.244 1246.16 167.926 1246.05 167.926C1243.93 167.926 1247.45 163.927 1248.29 161.983C1248.98 160.378 1251.29 155.704 1250.81 157.385C1250.28 159.236 1242.34 173.095 1248.63 167.59C1251.78 164.829 1246 175.612 1243.92 179.252C1243.18 180.545 1244.15 176.21 1244.81 174.879" stroke="#A3A3A3" stroke-width="3" stroke-linecap="round"/>
<path d="M1156 147.629C1156 141.093 1163.37 136.226 1167.61 131.986C1174.21 125.379 1181.96 119.491 1188.97 113.09C1193.41 109.036 1198.71 106.612 1203.04 102.101C1208.58 96.3468 1214.72 91.684 1219.98 85.6164C1221.42 83.9534 1229.1 75.4466 1231.13 76.0285C1233.62 76.7396 1237.02 83.0423 1238.37 85.1117C1241.48 89.8956 1246.21 93.2902 1249.64 97.7274C1251.15 99.6931 1252.54 101.8 1253.95 103.839C1255.93 106.685 1258.87 108.276 1260.74 111.072C1265.73 118.553 1273.89 123.498 1278.68 131.033C1280.12 133.3 1283.17 136.699 1283.17 139.555C1283.17 141.398 1277.41 140.564 1276.1 140.564C1271.2 140.564 1266.43 141.574 1261.97 141.574" stroke="#A3A3A3" stroke-width="3" stroke-linecap="round"/>
<path d="M1156 145.611C1161.36 145.611 1167.12 146.279 1172.15 144.601" stroke="#A3A3A3" stroke-width="3" stroke-linecap="round"/>
<path d="M1255.92 104.231C1255.92 100.069 1257.22 97.412 1258.49 93.5782C1259.61 90.2176 1260.26 83.7333 1262.48 81.0747C1264.13 79.0849 1277.38 82.5516 1274.59 87.5788C1270.23 95.4245 1271.89 105.999 1267.02 113.315" stroke="#A3A3A3" stroke-width="3" stroke-linecap="round"/>
<path d="M69.9054 591.413C58.1973 591.413 43.5266 595.589 35.0862 604.029C31.3866 607.729 32.5631 613.337 32.5631 618.158C32.5631 621.882 33.9961 621.367 35.5908 624.158C36.0692 624.995 38.8645 626.058 36.488 626.737C33.3384 627.637 30.2597 628.8 27.1244 629.765C24.1688 630.674 19.4188 636.587 18.4336 639.297C16.1029 645.706 12.2716 655.787 17.985 661.5C24.8742 668.389 29.1501 668.116 39.0672 668.116C44.9602 668.116 42.766 666.206 45.2348 671.144C47.2102 675.095 47.5639 680.411 50.1689 683.76C57.1424 692.726 69.6839 688.07 77.4187 681.741C79.7279 679.852 83.0256 676.706 83.0256 673.667C83.0256 667.796 88.667 661.387 91.4921 656.678C93.5464 653.254 92.5476 654.796 96.1459 654.996C99.6841 655.193 103.186 656.153 107.023 656.005C114.433 655.72 113.303 646.771 113.303 641.876C113.303 636.087 108.539 633.829 108.257 628.756C107.94 623.051 122.688 616.996 124.629 610.589C127.191 602.135 126.378 598.644 119.583 593.208C117.128 591.244 110.777 592.366 107.696 592.423C103.061 592.508 94.1274 598.013 94.1274 592.198C94.1274 584.605 86.3862 573.511 77.7551 576.499C71.0615 578.816 63.883 586.301 60.8221 592.423" stroke="#A3A3A3" stroke-width="3" stroke-linecap="round"/>
<path d="M1167.74 612.256C1161.89 602.117 1150.94 591.499 1139.41 588.41C1134.36 587.055 1130.09 590.879 1125.91 593.289C1122.69 595.151 1123.85 596.135 1122.23 598.911C1121.74 599.744 1122.22 602.696 1120.44 600.978C1118.09 598.7 1115.54 596.615 1113.14 594.382C1110.88 592.278 1103.38 591.12 1100.54 591.622C1093.82 592.808 1083.18 594.53 1081.09 602.335C1078.57 611.746 1080.94 615.313 1085.9 623.901C1088.85 629.004 1089.4 626.149 1086.36 630.756C1083.93 634.442 1079.5 637.406 1077.9 641.337C1073.62 651.859 1083.93 660.393 1093.27 663.927C1096.07 664.982 1100.44 666.265 1103.07 664.746C1108.16 661.81 1116.53 663.491 1122.02 663.583C1126.01 663.65 1124.17 663.556 1125.8 666.772C1127.4 669.935 1128.32 673.448 1130.37 676.697C1134.32 682.972 1141.5 677.519 1145.74 675.071C1150.75 672.176 1150.33 666.922 1154.58 664.141C1159.36 661.014 1171.98 670.758 1178.5 669.236C1187.1 667.228 1189.72 664.778 1191.03 656.175C1191.5 653.068 1187.36 648.128 1185.77 645.489C1183.37 641.517 1174.14 636.533 1179.18 633.625C1185.75 629.829 1191.49 617.578 1184.59 611.597C1179.23 606.959 1169.16 604.484 1162.33 604.894" stroke="#A3A3A3" stroke-width="3" stroke-linecap="round"/>
<path d="M745 580.139C745 567.797 770.719 565.675 770.231 578.345C769.967 585.207 764.295 591.842 763.223 598.81C762.763 601.797 758.83 614.808 762.157 616.472" stroke="#A3A3A3" stroke-width="3" stroke-linecap="round"/>
<path d="M765.185 637.666V635.648" stroke="#A3A3A3" stroke-width="3" stroke-linecap="round"/>
<path d="M782.342 577.111C783.04 570.831 790.357 565 795.967 565C804.736 565 805.555 575.038 805.555 581.54C805.555 584.592 805.237 586.871 804.602 589.727C804.01 592.39 801.695 594.286 801.518 597.296C801.17 603.213 800.509 610.022 800.509 616.472" stroke="#A3A3A3" stroke-width="3" stroke-linecap="round"/>
<path d="M800.509 639.685V641.703" stroke="#A3A3A3" stroke-width="3" stroke-linecap="round"/>
<path d="M821.703 573.074C821.827 572.084 827.016 569.225 828.263 568.532C830.504 567.288 834.351 568.028 836.842 568.028C843.987 568.028 845.925 579.518 845.925 584.736C845.925 588.316 844.431 589.923 842.112 592.474C839.313 595.553 839.189 598.521 837.347 601.838C833.956 607.941 833.814 616.596 833.814 623.537" stroke="#A3A3A3" stroke-width="3" stroke-linecap="round"/>
<path d="M835.833 632.62C835.833 634.955 835.563 637.531 837.851 638.675" stroke="#A3A3A3" stroke-width="3" stroke-linecap="round"/>
<path d="M708.435 870.453C708.435 865.116 707.426 860.004 707.426 854.81C707.426 848.228 708.724 843.959 710.509 837.709C713.196 828.306 719.227 821 729.629 821C735.739 821 733.13 843.82 730.078 847.745C727.885 850.565 726.68 854.488 725.144 857.782C723.899 860.448 722.119 862.104 720.77 864.398C718.406 868.416 715.025 871.67 712.472 875.5" stroke="#A3A3A3" stroke-width="3" stroke-linecap="round"/>
<path d="M712.472 875.5C718.884 875.025 723.535 869.167 729.629 867.426C734.858 865.932 738.436 862.932 744.151 862.435C747.952 862.105 766.971 856.33 766.971 861.875C766.971 868.34 754.19 873.481 748.581 873.481C740.431 873.481 732.672 875.5 724.583 875.5C720.412 875.5 716.536 875.493 712.472 876.509" stroke="#A3A3A3" stroke-width="3" stroke-linecap="round"/>
<path d="M712.472 877.518C713.237 883.641 762.642 894.506 747.011 907.011C744.043 909.385 730.739 897.111 728.171 895.685C721.182 891.801 711.463 888.109 711.463 879.537" stroke="#A3A3A3" stroke-width="3" stroke-linecap="round"/>
<path d="M711.463 879.537C711.463 891.406 714.49 903.281 714.49 915.085C714.49 918.913 714.723 920.683 711.911 923.495C710.031 925.376 707.953 927.161 706.472 929.382C705.338 931.083 704.239 925.256 703.893 924.448C699.824 914.954 702.379 901.452 702.379 891.143C702.379 883.754 709.604 881.075 711.463 875.5" stroke="#A3A3A3" stroke-width="3" stroke-linecap="round"/>
<path d="M711.463 875.5C702.273 875.5 694.472 876.528 685.727 878.471C680.656 879.598 673.375 878.671 668.626 877.518C660.875 875.636 661 873.813 661 866.416C661 862.115 668.881 858.217 672.607 857.389C678.87 855.997 685.105 858.652 689.764 862.379C695.981 867.353 701.515 869.321 709.444 870.453" stroke="#A3A3A3" stroke-width="3" stroke-linecap="round"/>
<path d="M169.902 923.389C168.858 911.907 164.454 891.982 174.163 883.243C176.109 881.492 182.816 881 185.546 881C190.966 881 196.305 882.807 197.096 889.13C197.598 893.143 200.763 906.512 197.937 910.044C197.001 911.214 196.3 913.72 194.629 912.791C193.604 912.222 191.209 909.865 191.209 908.642C191.209 891.944 208.296 887.51 222.159 888.065C231.739 888.448 234.112 913.321 230.682 919.8C227.94 924.979 228.714 912.527 229.448 910.324C231.744 903.437 242.029 902.194 248.119 902.194C271.63 902.194 266.79 928.741 266.79 945.592" stroke="#A3A3A3" stroke-width="3" stroke-linecap="round"/>
<path d="M99.2996 89.2035C100.343 100.685 104.748 120.61 95.0383 129.349C93.0927 131.1 86.386 131.592 83.6562 131.592C78.2353 131.592 72.8963 129.785 72.1059 123.462C71.6042 119.449 68.4391 106.08 71.2648 102.548C72.2007 101.378 72.902 98.8724 74.5729 99.8006C75.5978 100.37 77.9932 102.727 77.9932 103.95C77.9932 120.648 60.9058 125.082 47.0428 124.527C37.4632 124.144 35.0901 99.2712 38.5203 92.792C41.2619 87.6134 40.488 100.065 39.7538 102.268C37.4579 109.155 27.1732 110.398 21.0826 110.398C-2.42774 110.398 2.41151 83.8508 2.41151 67" stroke="#A3A3A3" stroke-width="3" stroke-linecap="round"/>
<path d="M750 244.509C754.709 226.721 768.832 212.578 777.586 196.738C778.099 195.811 780.069 188.929 781.287 189.001C783.567 189.135 788.552 198.26 790.258 199.99C795.852 205.664 801.784 210.979 807.752 216.25C812.541 220.481 815.886 225.966 820.648 230.156C823.67 232.815 823.925 235.153 826.591 231.726C831.359 225.595 835.753 219.1 840.272 212.774C842.98 208.983 845.101 204.917 848.402 201.616C851.501 198.517 852.17 199.437 854.514 203.186C861.421 214.238 870.371 224.579 879.016 234.305C881.583 237.192 882.222 238.682 886.361 235.706C891.567 231.965 896.355 227.338 900.883 222.81C905.779 217.915 912.03 213.954 916.47 208.681C918.843 205.863 919.363 202.939 922.582 206.158" stroke="#A3A3A3" stroke-width="3" stroke-linecap="round"/>
<path d="M477.582 537C472.873 554.789 458.749 568.931 449.996 584.771C449.483 585.698 447.513 592.58 446.295 592.509C444.015 592.375 439.03 583.249 437.324 581.519C431.73 575.845 425.798 570.531 419.83 565.259C415.041 561.029 411.696 555.544 406.934 551.354C403.912 548.694 403.657 546.356 400.991 549.784C396.223 555.914 391.829 562.409 387.31 568.735C384.602 572.526 382.481 576.593 379.18 579.893C376.081 582.992 375.412 582.072 373.068 578.323C366.161 567.271 357.211 556.93 348.566 547.205C345.999 544.317 345.36 542.828 341.221 545.803C336.015 549.545 331.226 554.171 326.699 558.699C321.803 563.595 315.552 567.556 311.112 572.828C308.739 575.646 308.218 578.57 305 575.352" stroke="#A3A3A3" stroke-width="3" stroke-linecap="round"/>
<path d="M587 684.065C587.533 689.391 592.846 694.978 594.85 699.988C596.148 703.234 598.241 707.486 600.12 710.305" stroke="#A3A3A3" stroke-width="3" stroke-linecap="round"/>
<path d="M612.231 677C612.536 682.185 613.882 688.478 614.811 693.653C615.98 700.17 617.278 706.68 617.278 713.333" stroke="#A3A3A3" stroke-width="3" stroke-linecap="round"/>
<path d="M636.453 684.065C636.453 689.747 632.375 695.832 630.174 700.998C627.943 706.231 625.352 717.37 625.352 717.37" stroke="#A3A3A3" stroke-width="3" stroke-linecap="round"/>
<path d="M650.583 691.13C648.994 691.659 647.377 694.66 646.097 695.839C642.483 699.171 640.611 703.194 638.36 707.446C635.887 712.117 632.682 716.839 630.398 721.407" stroke="#A3A3A3" stroke-width="3" stroke-linecap="round"/>
<path d="M623.333 732.509C623.333 737.488 623.952 741.753 626.361 734.527" stroke="#A3A3A3" stroke-width="3" stroke-linecap="round"/>
<path d="M333.083 172C328.817 172 326.22 188.199 325.794 191.176C324.81 198.062 325.009 204.918 325.009 211.865C325.009 215.588 323.329 222.935 326.523 225.49C332.206 230.036 343.046 232.773 350.577 234.349C359.243 236.163 369.91 234.574 378.612 234.574C394.939 234.574 411.141 235.583 427.448 235.583C433.812 235.583 456.593 239.191 457.221 228.518C457.712 220.172 457.221 211.647 457.221 203.287C457.221 197.558 456.841 195.593 453.745 190.727C451.163 186.67 447.04 180.173 442.307 178.28C431.679 174.029 419.463 173.009 408.104 173.009C394.967 173.009 382.316 170.674 369.192 173.458C356.896 176.066 343.512 173.009 331.065 173.009" stroke="#A3A3A3" stroke-width="3" stroke-linecap="round"/>
<path d="M324 201.268C334.455 201.268 344.992 202.278 355.511 202.278C365.472 202.278 375.401 201.706 385.228 203.511C393.263 204.987 401.043 204.212 409.057 206.258C417.118 208.316 426.14 209.223 434.457 209.342C441.38 209.441 462.126 210.352 455.203 210.352" stroke="#A3A3A3" stroke-width="3" stroke-linecap="round"/>
<path d="M342.167 178.056C342.167 181.206 340.779 187.845 343.4 189.942C346.938 192.773 358.876 191.813 362.688 191.12C364.71 190.752 362.013 181.306 360.782 180.523C356.401 177.735 348.785 177.315 343.68 176.542C340.843 176.112 331.393 175.497 339.139 177.046" stroke="#A3A3A3" stroke-width="3" stroke-linecap="round"/>
<path d="M382.537 181.083C379.38 181.083 378.5 186.632 378.5 189.382C378.5 195.938 379.503 195.213 386.125 195.213C393.151 195.213 397.965 196.9 404.852 198.465C408.005 199.181 419.865 203.69 417.636 196.446C416.359 192.296 416.745 185.902 413.599 182.878C409.517 178.952 402.048 178.056 396.666 178.056C391.358 178.056 385.333 182.185 380.518 184.111" stroke="#A3A3A3" stroke-width="3" stroke-linecap="round"/>
<path d="M450.156 186.129C445.972 185.711 444.396 183.369 440.456 185.12C437.19 186.572 429.971 190.959 429.971 195.213C429.971 199.917 450.52 198.241 454.193 198.241" stroke="#A3A3A3" stroke-width="3" stroke-linecap="round"/>
<path d="M348.222 222.463C341.741 222.463 337.12 225.392 337.12 232.611C337.12 236.189 336.929 238.371 339.139 241.134C341.649 244.272 343.847 243.253 347.661 244.161C361.123 247.366 362.113 233.886 354.502 226.275C353.156 224.929 350.581 225.49 348.727 225.49C345.406 225.49 345.194 225.702 345.194 229.023C345.194 234.165 344.434 238.611 350.745 238.611C360.523 238.611 352.108 223.735 346.764 229.079C345.697 230.146 343.534 234.726 343.232 236.087C342.522 239.281 346.204 232.442 346.204 230.537C346.204 221.439 341.623 233.547 339.363 235.807C338.791 236.379 340.87 232.067 341.101 231.49C342.242 228.637 342.167 225.911 342.167 222.911C342.167 218.179 342.167 225.019 342.167 226.275C342.167 230.659 343.092 237.511 345.194 241.19C348.118 246.306 356.296 242.481 356.296 237.097C356.296 230.711 339.139 231.319 339.139 239.62C339.139 243.39 342.827 242.725 345.755 242.648C348.257 242.582 350.956 241.932 352.764 240.124C354.165 238.723 353.265 237.886 352.259 239.283C350.554 241.652 344.579 250.337 349.68 242.535C350.541 241.218 361.123 224.591 353.268 228.518C351.523 229.391 341.925 235.573 345.419 234.125C347.82 233.129 355.536 229.527 349.231 229.527" stroke="#A3A3A3" stroke-width="3" stroke-linecap="round"/>
<path d="M424.925 229.527C421.084 229.527 417.29 239.24 419.094 242.648C420.962 246.177 431.928 246.974 435.578 247.638C444.089 249.185 446.069 237.663 441.522 233.116C436.311 227.905 428.355 226.085 420.888 226.5C416.899 226.721 411.399 233.424 410.852 236.985C409.77 244.014 429.378 243.672 433.223 242.199C435.37 241.377 440.642 236.744 437.372 234.069C433.514 230.912 421.511 228.823 416.851 231.153C414.151 232.503 411.271 236.439 413.038 239.62C415.901 244.773 430.784 244.838 435.578 243.208C437.607 242.519 439.804 237.601 436.531 237.601C430.327 237.601 426.845 238.255 421.953 242.535C414.53 249.031 429.528 248.644 432.943 241.246C439.119 227.864 421.091 232.298 420.888 237.377C420.555 245.691 431.838 240.802 426.495 235.134C420.27 228.532 406.806 224.815 408.833 237.994C409.371 241.492 416.064 240.837 418.309 240.405C419.716 240.134 430.233 232.702 426.383 231.602C421.604 230.237 416.254 239.962 415.057 243.433C413.152 248.958 431.758 241.759 433.896 240.068C434.824 239.335 435.179 236.88 434.008 238.05C432.613 239.446 430.981 242.136 430.981 244.161C430.981 247.731 435.36 247.676 437.709 245.451C438.49 244.711 447.342 236.542 443.652 238.386C440.829 239.798 438.446 242.855 437.036 245.675" stroke="#A3A3A3" stroke-width="3" stroke-linecap="round"/>
<path d="M1186.36 841C1190.62 841 1193.22 857.199 1193.65 860.176C1194.63 867.062 1194.43 873.918 1194.43 880.865C1194.43 884.588 1196.11 891.935 1192.92 894.49C1187.23 899.036 1176.39 901.773 1168.86 903.349C1160.2 905.163 1149.53 903.574 1140.83 903.574C1124.5 903.574 1108.3 904.583 1091.99 904.583C1085.63 904.583 1062.85 908.191 1062.22 897.518C1061.73 889.172 1062.22 880.647 1062.22 872.287C1062.22 866.558 1062.6 864.593 1065.69 859.727C1068.28 855.67 1072.4 849.173 1077.13 847.28C1087.76 843.029 1099.98 842.009 1111.34 842.009C1124.47 842.009 1137.12 839.674 1150.25 842.458C1162.54 845.066 1175.93 842.009 1188.37 842.009" stroke="#A3A3A3" stroke-width="3" stroke-linecap="round"/>
<path d="M1195.44 870.268C1184.98 870.268 1174.45 871.278 1163.93 871.278C1153.97 871.278 1144.04 870.706 1134.21 872.511C1126.18 873.987 1118.4 873.212 1110.38 875.258C1102.32 877.316 1093.3 878.223 1084.98 878.342C1078.06 878.441 1057.31 879.352 1064.24 879.352" stroke="#A3A3A3" stroke-width="3" stroke-linecap="round"/>
<path d="M1177.27 847.056C1177.27 850.206 1178.66 856.845 1176.04 858.942C1172.5 861.773 1160.56 860.813 1156.75 860.12C1154.73 859.752 1157.43 850.306 1158.66 849.523C1163.04 846.735 1170.65 846.315 1175.76 845.542C1178.6 845.112 1188.05 844.497 1180.3 846.046" stroke="#A3A3A3" stroke-width="3" stroke-linecap="round"/>
<path d="M1136.9 850.083C1140.06 850.083 1140.94 855.632 1140.94 858.382C1140.94 864.938 1139.94 864.213 1133.31 864.213C1126.29 864.213 1121.47 865.9 1114.59 867.465C1111.43 868.181 1099.57 872.69 1101.8 865.446C1103.08 861.296 1102.69 854.902 1105.84 851.878C1109.92 847.952 1117.39 847.056 1122.77 847.056C1128.08 847.056 1134.11 851.185 1138.92 853.111" stroke="#A3A3A3" stroke-width="3" stroke-linecap="round"/>
<path d="M1069.28 855.129C1073.47 854.711 1075.04 852.369 1078.98 854.12C1082.25 855.572 1089.47 859.959 1089.47 864.213C1089.47 868.917 1068.92 867.241 1065.25 867.241" stroke="#A3A3A3" stroke-width="3" stroke-linecap="round"/>
<path d="M1171.22 891.463C1177.7 891.463 1182.32 894.392 1182.32 901.611C1182.32 905.189 1182.51 907.371 1180.3 910.134C1177.79 913.272 1175.59 912.253 1171.78 913.161C1158.32 916.366 1157.33 902.886 1164.94 895.275C1166.28 893.929 1168.86 894.49 1170.71 894.49C1174.03 894.49 1174.25 894.702 1174.25 898.023C1174.25 903.165 1175.01 907.611 1168.69 907.611C1158.92 907.611 1167.33 892.735 1172.68 898.079C1173.74 899.146 1175.9 903.726 1176.21 905.087C1176.92 908.281 1173.24 901.442 1173.24 899.537C1173.24 890.439 1177.82 902.547 1180.08 904.807C1180.65 905.379 1178.57 901.067 1178.34 900.49C1177.2 897.637 1177.27 894.911 1177.27 891.911C1177.27 887.179 1177.27 894.019 1177.27 895.275C1177.27 899.659 1176.35 906.511 1174.25 910.19C1171.32 915.306 1163.14 911.481 1163.14 906.097C1163.14 899.711 1180.3 900.319 1180.3 908.62C1180.3 912.39 1176.61 911.725 1173.68 911.648C1171.18 911.582 1168.48 910.932 1166.68 909.124C1165.27 907.723 1166.17 906.886 1167.18 908.283C1168.89 910.652 1174.86 919.337 1169.76 911.535C1168.9 910.218 1158.32 893.591 1166.17 897.518C1167.92 898.391 1177.51 904.573 1174.02 903.125C1171.62 902.129 1163.9 898.527 1170.21 898.527" stroke="#A3A3A3" stroke-width="3" stroke-linecap="round"/>
<path d="M1094.51 898.527C1098.36 898.527 1102.15 908.24 1100.35 911.648C1098.48 915.177 1087.51 915.974 1083.86 916.638C1075.35 918.185 1073.37 906.663 1077.92 902.116C1083.13 896.905 1091.08 895.085 1098.55 895.5C1102.54 895.721 1108.04 902.424 1108.59 905.985C1109.67 913.014 1090.06 912.672 1086.22 911.199C1084.07 910.377 1078.8 905.744 1082.07 903.069C1085.93 899.912 1097.93 897.823 1102.59 900.153C1105.29 901.503 1108.17 905.439 1106.4 908.62C1103.54 913.773 1088.66 913.838 1083.86 912.208C1081.83 911.519 1079.64 906.601 1082.91 906.601C1089.11 906.601 1092.59 907.255 1097.49 911.535C1104.91 918.031 1089.91 917.644 1086.5 910.246C1080.32 896.864 1098.35 901.298 1098.55 906.377C1098.88 914.691 1087.6 909.802 1092.94 904.134C1099.17 897.532 1112.63 893.815 1110.61 906.994C1110.07 910.492 1103.38 909.837 1101.13 909.405C1099.72 909.134 1089.21 901.702 1093.06 900.602C1097.84 899.237 1103.19 908.962 1104.38 912.433C1106.29 917.958 1087.68 910.759 1085.54 909.068C1084.62 908.335 1084.26 905.88 1085.43 907.05C1086.83 908.446 1088.46 911.136 1088.46 913.161C1088.46 916.731 1084.08 916.676 1081.73 914.451C1080.95 913.711 1072.1 905.542 1075.79 907.386C1078.61 908.798 1080.99 911.855 1082.4 914.675" stroke="#A3A3A3" stroke-width="3" stroke-linecap="round"/>
<path d="M259.773 35.9003C259.773 24.7904 259.591 13.3372 260.845 2.67389C261.313 -1.30398 272.71 13.4957 274.541 16.6076C277.355 21.3913 283.853 24.515 286.331 29.4694C289.419 35.6456 292.616 25.8945 295.739 24.1103C299.884 21.7415 302.697 17.8186 306.397 14.9403C309.302 12.6813 313.162 11.1993 316.937 12.5585C319.402 13.446 316.66 19.4502 316.58 20.8948C316.195 27.8229 310.013 33.9375 307.767 40.4258C306.984 42.6868 304.79 45.9033 304.79 48.2263C304.79 52.328 308.387 55.5962 310.149 58.9445C312.636 63.67 314.546 68.6182 316.818 73.414C318.799 77.5967 318.616 77.3979 315.448 75.0218C308.465 69.7839 300.591 65.8318 292.404 63.6486C288.981 62.7357 284.379 60.6507 281.21 59.2422C276.167 57.0012 276.523 60.2799 274.243 64.8395C272.927 67.4707 265.962 84.3106 263.822 84.1323C257.834 83.6332 257.897 62.9591 257.63 58.4086C257.463 55.5827 247.057 62.5264 245.304 63.1722C239.408 65.3441 233.338 65.0716 227.202 63.7081C225.734 63.382 232.724 57.5752 233.573 56.5031C236.492 52.8162 242.892 50.7078 247.328 49.3576C252.274 47.8523 258.208 43.8126 259.773 39.1158" stroke="#A3A3A3" stroke-width="3" stroke-linecap="round"/>
<path d="M641.455 98.373C647.672 99.0638 652.829 100.517 659.438 100.517C666.146 100.517 672.855 100.517 679.564 100.517C686.513 100.517 695.001 99.9083 701.715 101.827C712.427 104.887 712.7 94.9318 717.316 87.2975C721.372 80.5897 726.923 74.4393 729.582 67.052C730.696 63.9574 731.453 60.9725 733.393 58.4774C734.225 57.4077 728.337 57.6438 727.796 57.6438C722.794 57.6438 717.792 57.6438 712.791 57.6438C687.97 57.6438 663.265 55.5002 638.775 55.5002C634.488 55.5002 630.201 55.5002 625.914 55.5002C621.794 55.5002 625.449 66.0622 626.509 68.0047C630.36 75.0649 636.187 79.4977 640.324 86.047C643.142 90.5092 646.333 99.2045 651.101 101.588" stroke="#A3A3A3" stroke-width="3" stroke-linecap="round"/>
<path d="M642.527 56.572C642.527 51.7447 641.192 44.8319 643.36 40.4947C644.359 38.4971 649.091 39.4228 651.101 39.4228C655.746 39.4228 660.39 39.4228 665.035 39.4228C673.08 39.4228 680.356 43.7101 688.615 43.7101C696.118 43.7101 703.621 43.7101 711.123 43.7101C712.712 43.7101 718.339 42.8274 719.46 43.9483C721.005 45.4941 719.698 53.4082 719.698 55.5001" stroke="#A3A3A3" stroke-width="3" stroke-linecap="round"/>
<path d="M654.317 46.9256C651.796 47.2407 654.208 49.0692 655.746 49.0692C656.653 49.0692 653.651 48.8086 653.245 47.9974" stroke="#A3A3A3" stroke-width="3" stroke-linecap="round"/>
<path d="M665.311 47.7936C665.311 48.3886 665.735 48.5772 666.143 48.9338C666.455 49.2069 666.489 48.3714 666.489 48.2096" stroke="#A3A3A3" stroke-width="3" stroke-linecap="round"/>
<path d="M682.228 50.2896C682.201 50.0228 681.124 49.6531 681.011 49.8505C680.965 49.9313 681.439 50.2203 681.535 50.2203" stroke="#A3A3A3" stroke-width="3" stroke-linecap="round"/>
<path d="M702.473 51.1216C702.501 51.3752 703.026 51.2281 703.182 51.3835C703.261 51.4625 703.305 51.7534 703.305 51.5376" stroke="#A3A3A3" stroke-width="3" stroke-linecap="round"/>
<path d="M705.138 41.7303C705.138 40.3569 705.138 38.9834 705.138 37.61C705.138 34.4209 704.743 31.2826 704.884 28.0849C704.982 25.8749 705.508 23.6816 705.59 21.4784C705.605 21.0773 705.486 20.4551 705.603 20.0477C705.66 19.8453 706.772 20.3502 706.849 20.3784C708.698 21.0566 710.582 21.6087 712.413 22.3368C713.094 22.6077 713.824 22.707 714.504 22.9663C715.185 23.2254 715.83 23.5293 716.533 23.7357C717.862 24.1258 719.224 24.4406 720.564 24.7912C720.812 24.8561 721.09 24.8442 721.327 24.912C721.442 24.945 720.51 25.2671 720.424 25.2999C719.091 25.8092 717.74 26.3185 716.387 26.7814C715.016 27.2505 713.571 27.7241 712.171 28.1104C709.908 28.7345 707.903 30.1157 705.596 30.6283" stroke="#A3A3A3" stroke-width="3" stroke-linecap="round"/>
<path d="M182.732 339.721C174.611 339.721 162.427 337.151 155.442 341.876C147.134 347.496 146.528 356.591 147.324 366.139C148.583 381.255 160.614 391.607 171.999 399.987C176.785 403.51 181.854 404.982 187.868 405.399C197.655 406.078 214.236 402.464 220.524 394.025C225.078 387.913 229.757 375.981 226.074 368.616C220.823 358.113 209.601 351.7 199.61 346.371C191.032 341.796 181.937 339.638 172.641 337.244C167.602 335.946 161.815 335.732 157.139 338.069" stroke="#A3A3A3" stroke-width="3" stroke-linecap="round"/>
<path d="M146.406 393.383C143.281 393.695 138.926 396.811 136.224 398.336C133.869 399.665 129.448 401.706 128.244 404.115" stroke="#A3A3A3" stroke-width="3" stroke-linecap="round"/>
<path d="M160.441 405.766C156.587 410.102 157.809 427.605 162.918 428.882" stroke="#A3A3A3" stroke-width="3" stroke-linecap="round"/>
<path d="M216.58 409.894C216.58 413.794 216.729 425.242 220.708 427.231" stroke="#A3A3A3" stroke-width="3" stroke-linecap="round"/>
<path d="M234.742 390.08C237.056 390.338 248.777 397.263 248.777 395.034" stroke="#A3A3A3" stroke-width="3" stroke-linecap="round"/>
<path d="M216.58 348.802C220.371 345.01 227.925 339.959 228.963 334.767" stroke="#A3A3A3" stroke-width="3" stroke-linecap="round"/>
<path d="M178.604 325.686C178.604 320.419 179.429 315.217 179.429 310" stroke="#A3A3A3" stroke-width="3" stroke-linecap="round"/>
<path d="M127.418 336.418C125.799 336.094 124.445 334.456 123.199 333.483C119.566 330.645 116.022 329.393 111.503 328.621C108.018 328.026 104.522 328.163 101 328.163" stroke="#A3A3A3" stroke-width="3" stroke-linecap="round"/>
<path d="M124.942 366.139C119.514 366.139 113.004 366.392 108.43 369.441" stroke="#A3A3A3" stroke-width="3" stroke-linecap="round"/>
<path d="M545.102 922.999C540.519 917.843 535.962 912.654 532.22 906.625C529.37 902.033 527.363 897.129 525.321 892.14C523.652 888.059 524.348 882.334 521.915 878.685" stroke="#A3A3A3" stroke-width="3" stroke-linecap="round"/>
<path d="M542.526 924.03C538.524 920.028 533.372 917.469 529.157 913.781C527.714 912.518 525.74 911.415 524.577 909.888C522.883 907.665 520.968 904.773 518.823 903.018C512.918 898.186 509.215 891.417 505.941 884.869" stroke="#A3A3A3" stroke-width="3" stroke-linecap="round"/>
<path d="M520.369 879.716C526.396 879.716 529.27 870.279 530.674 865.803C532.109 861.23 531.19 855.39 531.19 850.631C531.19 843.41 530.424 835.974 527.869 829.161C524.417 819.955 519.214 816.48 509.205 815.936C498.289 815.343 486.549 817.025 477.028 822.864C473.097 825.274 469.37 827.938 465.921 830.993C462.957 833.62 461.442 836.093 459.337 839.352C456.621 843.56 453.442 847.499 452.095 852.349C450.269 858.923 452.537 863.898 454.872 870.069C457.137 876.056 459.059 878.855 464.376 882.493C470.405 886.618 481.546 887.845 488.622 887.416C494.141 887.082 499.898 884.478 504.911 882.807" stroke="#A3A3A3" stroke-width="3" stroke-linecap="round"/>
<path d="M1086.81 379.059L1103.14 393.914L1125.22 393.804L1116.14 413.928L1123.07 434.892L1101.12 432.474L1083.32 445.541L1078.84 423.922L1060.91 411.034L1080.09 400.091L1086.81 379.059Z" fill="#A3A3A3"/>
<path d="M314.311 714.5L315.356 736.554L331.046 752.088L310.394 759.897L300.469 779.619L286.661 762.391L264.837 759.047L276.954 740.59L273.391 718.801L294.689 724.622L314.311 714.5Z" fill="#A3A3A3"/>
<path d="M822 431.739C822 424.132 824.367 416.833 826.19 409.542C826.891 406.737 826.752 403.532 827.981 400.938C828.329 400.203 828.333 399.165 828.333 398.347" stroke="#A3A3A3" stroke-width="3" stroke-linecap="round"/>
<path d="M852.513 436.057C852.513 432.423 853.804 428.871 854.896 425.454C856.125 421.608 857.494 417.818 858.814 414.004C859.9 410.867 860.669 407.677 861.917 404.584C862.505 403.127 862.992 401.682 863.292 400.138C863.398 399.593 863.4 399.263 863.74 398.923" stroke="#A3A3A3" stroke-width="3" stroke-linecap="round"/>
<path d="M828.333 397.772C827.718 397.695 826.951 392.696 826.91 392.174C826.592 388.199 826.318 384.285 826.318 380.212C826.318 373.091 828.552 366.053 831.851 359.774C833.531 356.577 835.918 353.705 838.6 351.298C840.641 349.466 842.441 347.972 845.317 347.972" stroke="#A3A3A3" stroke-width="3" stroke-linecap="round"/>
<path d="M866.618 398.923C866.618 397.013 872.384 396.501 873.623 396.172C875.899 395.568 877.658 395.797 878.581 393.534C879.062 392.352 879.765 391.213 880.148 389.999C880.671 388.341 880.492 386.379 880.724 384.658C881.213 381.016 881.299 377.201 881.299 373.527C881.299 371.85 881.587 370.214 881.587 368.554C881.587 366.797 879.967 363.917 878.932 362.525C876.85 359.724 874.493 356.972 871.608 354.992C870.313 354.103 867.939 353.204 867.194 351.714" stroke="#A3A3A3" stroke-width="3" stroke-linecap="round"/>
<path d="M834.09 364.38C836.881 364.38 841.404 363.42 843.733 365.243C844.89 366.148 845.934 367.431 846.884 368.554C847.641 369.448 847.332 371.103 847.332 372.184C847.332 376.134 845.798 375.894 842.438 375.894C841.652 375.894 839.901 376.236 839.272 375.606C838.894 375.229 838.878 374.69 838.408 374.455" stroke="#A3A3A3" stroke-width="3" stroke-linecap="round"/>
<path d="M845.317 347.108C844.973 342.981 843.759 338.986 843.174 334.89C842.47 329.967 842.726 324.943 842.726 319.985C842.726 316.442 843.578 313.208 846.436 310.87C848.667 309.044 849.591 310.352 850.562 312.405C852.368 316.225 853.484 319.526 853.952 323.743C854.192 325.902 854.816 327.852 854.816 330.06C854.816 332.843 854.816 335.626 854.816 338.408C854.816 342.225 853.769 345.918 853.393 349.683C853.23 351.315 852.746 351.304 853.505 349.635C854.478 347.494 855.665 345.35 856.799 343.27C859.432 338.442 862.137 334.207 866.298 330.508C869.461 327.697 873.333 324.515 877.253 322.8C881.464 320.958 881.145 331.431 880.851 332.939C879.832 338.181 876.097 342.521 872.967 346.628C872.074 347.801 870.461 349.602 869.209 350.339C868.171 350.949 866.708 352.155 866.043 353.153" stroke="#A3A3A3" stroke-width="3" stroke-linecap="round"/>
<path d="M872.486 362.32C870.855 362.32 869.015 363.618 867.834 364.652C866.539 365.785 865.918 366.973 865.384 368.468C864.99 369.572 865.146 370.887 865.82 371.754C866.138 372.163 866.683 372.144 867.021 372.449C867.873 373.216 866.756 373.088 865.784 373.45C862.853 374.542 857.222 374.999 857.222 379.115C857.222 380.611 857.125 382.32 858.494 383.261C860.233 384.457 861.876 385.757 863.982 386.536C865.721 387.179 867.492 386.702 869.271 386.924C869.89 387.002 870.458 387.912 871.002 388.185" stroke="#A3A3A3" stroke-width="3" stroke-linecap="round"/>
<path d="M51.2013 844.403C51.2013 831.858 45.4391 820.229 47.4112 807.585C48.1506 802.844 49.8889 786.55 57.6987 787.01C59.6501 787.124 62.4356 794.454 62.8726 795.703C64.0131 798.961 64.7376 803.047 64.7376 806.502C64.7376 808.905 63.9844 810.931 63.6246 813.27C63.4615 814.33 63.1132 815.149 63.1132 816.248C63.1132 817.973 70.6851 812.584 71.5358 812.037C74.5035 810.125 77.4642 808.283 80.1388 805.99C80.7173 805.494 81.8902 804.92 82.5753 805.72C84.5525 808.026 83.2956 811.554 83.1468 814.082C83.0765 815.278 82.5061 816.35 81.7932 817.301C80.1975 819.428 79.3683 821.871 77.7624 824.039C76.2584 826.069 75.3111 830.122 72.9796 831.288C70.5963 832.48 68.3029 835.79 66.1213 837.575C64.4011 838.982 62.3371 839.66 60.406 840.733C57.5992 842.293 55.0599 844.098 52.2842 845.486" stroke="#A3A3A3" stroke-width="3" stroke-linecap="round"/>
<path d="M1022.89 39.9602C1022.89 32.5037 1019.75 24.6562 1021.59 17.2375C1022.09 15.2376 1022.92 13.3457 1023.28 11.3084C1023.6 9.54495 1023.59 7.77981 1024.08 6.04178C1024.48 4.59769 1024.95 3.88852 1025.72 2.69631C1026.73 1.12592 1029.04 2.55985 1029.81 3.59064C1032.36 6.98477 1031.83 12.0813 1031.83 16.1279C1031.83 16.601 1030.94 17.681 1031.37 17.4694C1033.74 16.2847 1035.76 14.471 1038.17 13.2958C1039.74 12.5347 1040.1 11.6695 1040.48 13.6933C1040.88 15.8547 1040.84 17.6692 1040.11 19.7218C1038.97 22.9452 1036.87 26.0564 1035.09 28.9632C1033.21 32.0304 1031.41 35.3372 1028.6 37.6581C1026.92 39.0453 1024.71 39.8937 1022.72 40.7221C1020.85 41.4983 1019.52 42.8162 1017.82 43.8357" stroke="#A3A3A3" stroke-width="3" stroke-linecap="round"/>
<path d="M1033.02 43.8357C1033.16 42.4926 1033.81 41.0356 1034.38 39.8443C1035.79 36.8813 1037.02 33.784 1038.55 30.8844C1039.56 28.9873 1040.86 26.9276 1042.63 25.6509C1043.7 24.8788 1045.21 24.9526 1045.61 26.6115C1046.37 29.8117 1043.42 33.4373 1041.27 35.588C1040.79 36.0657 1043.01 33.1532 1043.49 32.7393C1044.21 32.1147 1047.55 29.1923 1048.72 29.9238C1049.6 30.4723 1048.96 33.3901 1048.82 34.0974C1048.48 35.8389 1047.61 37.3452 1046.59 38.7678C1044.62 41.5006 1041 42.8197 1037.78 43.521C1035.09 44.1043 1032.22 45.3263 1029.45 45.3263" stroke="#A3A3A3" stroke-width="3" stroke-linecap="round"/>
<path d="M1007.68 74.5411C1006.82 73.5737 1006.8 71.5581 1006.67 70.3841C1006.33 67.2327 1006.38 64.0954 1007.38 61.0764C1008.64 57.3078 1009.49 53.8195 1012.39 50.9241C1013.1 50.2144 1013.06 53.9793 1013.03 54.4352C1012.94 55.8204 1012.78 57.3299 1012.45 58.675C1012.09 60.1442 1013.25 58.6854 1013.78 58.1781C1014.73 57.2578 1015.73 56.394 1016.66 55.462C1017.77 54.354 1017.76 55.9228 1017.8 56.8201C1017.94 59.8136 1018.56 63.9979 1016.99 66.724C1014.52 71.0297 1010.57 73.9633 1007.55 77.8038C1007.31 78.1143 1005 80.5411 1005 80.5033" stroke="#A3A3A3" stroke-width="3" stroke-linecap="round"/>
<path d="M1026.46 76.0317C1030 70.1335 1032.78 62.8716 1037.59 57.9297C1038.62 56.8797 1040.16 55.7354 1041.63 55.462C1042.85 55.2367 1047.39 54.6649 1048.04 56.1079C1048.4 56.9047 1048.36 58.3686 1048.04 59.1719C1047.88 59.5931 1047.61 59.9985 1047.4 60.3974C1047.26 60.6518 1046.66 61.0563 1046.93 61.1261C1048.8 61.5931 1051.33 59.6356 1053.29 59.6356C1054.86 59.6356 1053.78 63.3864 1053.58 63.9748C1052.83 66.0632 1051.6 67.5357 1049.92 69.0095C1046.69 71.8243 1043 72.1153 1038.87 72.7359C1031.81 73.7968 1024.75 73.7018 1017.82 75.4355" stroke="#A3A3A3" stroke-width="3" stroke-linecap="round"/>
<path d="M902.875 772.533C907.329 772.255 911.115 760.977 912.211 757.687C915.021 749.258 915.272 722.324 915.272 731.209" stroke="#A3A3A3" stroke-width="3" stroke-linecap="round"/>
<path d="M927.67 772.533C927.457 770.618 924.1 766.734 923.193 764.919C921.656 761.844 922.849 755.529 922.849 752.024C922.849 744.813 923.148 737.523 923.537 730.521C923.632 728.818 929.335 729.7 931.419 729.105C933.813 728.421 937.057 723.43 935.781 720.878C935.159 719.633 932.144 716.46 930.846 716.172C929.819 715.944 933.252 719.076 933.83 717.052C935.127 712.511 930.818 706.654 928.358 703.316C927.899 702.692 925.748 698.312 924.379 699.681C923.568 700.491 925.298 702.971 925.45 702.818C928.785 699.483 918.752 697.045 916 701.173C914.468 703.47 913.895 704.003 913.895 706.951C913.895 708.782 916.65 709.112 916.65 707.792C916.65 706.025 902.779 702.605 905.324 709.514C906.184 711.848 908.73 711.925 906.472 711.925C903.152 711.925 901.613 711.665 900.274 714.68C899.037 717.461 902.279 718.123 904.253 718.123C908.238 718.123 908.376 717.402 905.669 719.883C905.109 720.396 903.617 724.068 904.406 724.858C905.155 725.607 908.755 725.011 909.763 725.011C911.988 725.011 910.496 726.738 911.676 727.919C912.62 728.863 913.458 729.269 914.584 729.832" stroke="#A3A3A3" stroke-width="3" stroke-linecap="round"/>
</svg>
