<svg width="36" height="23" viewBox="0 0 36 23" fill="none" xmlns="http://www.w3.org/2000/svg">
<path d="M31.9835 11.7091C31.9835 10.7091 33.5065 5.4971 35.0305 3.9741C36.5525 2.4511 35.0305 0.808105 33.5075 0.808105C30.1025 0.808105 24.3685 7.70911 24.3685 11.7091C24.3685 16.7091 30.1015 22.1331 33.5075 22.1331C35.0305 22.1331 36.5535 20.7291 35.0305 19.2051C33.5075 17.6831 31.9835 13.7091 31.9835 11.7091Z" fill="#FFCC4D"/>
<path d="M13.6595 21.8951C8.78554 21.8951 2.99635 20.11 1.49835 17.5C0.00320113 14.895 0.000190679 12.5091 -0.00145543 11.2045L-0.00146484 11.1971C0.0105352 6.63107 4.31354 0.569068 12.7045 0.570068C21.1165 0.570068 30.4615 8.18707 30.4615 11.2331C30.4615 14.2801 22.0715 21.8951 13.6595 21.8951Z" fill="#FFCC4D"/>
</svg>
