<svg width="356" height="870" viewBox="0 0 356 870" fill="none" xmlns="http://www.w3.org/2000/svg">
    <path d="M138.834 32.2828C138.834 30.5596 137.641 28.9223 136.746 27.5348C132.915 21.601 129.531 15.4439 125.917 9.38649C124.506 7.02224 123.048 4.69397 121.694 2.29583C121.053 1.16001 120.495 3.63089 120.338 4.06069C118.155 10.0359 116.361 16.1786 114.277 22.1934C112.676 26.8146 111.303 31.6522 110.569 36.4997C110.249 38.6067 108.237 37.2315 106.595 36.9214C94.7416 34.6829 82.5166 35.1934 70.617 33.4698C69.2087 33.2658 67.7997 32.9351 66.3944 32.7513C65.4291 32.6251 66.5221 34.0587 66.6593 34.2819C68.0926 36.6135 69.494 38.8946 71.3026 40.9665C75.0768 45.29 80.1878 48.2546 84.8587 51.4932C89.7467 54.8823 94.7334 58.1386 99.6769 61.442C100.668 62.1041 100.325 62.8248 99.8795 63.8003C98.4783 66.8693 96.7418 69.7984 95.1427 72.7652C91.4112 79.6878 87.7069 86.7452 84.6094 93.9747C83.9759 95.4534 83.3105 96.914 82.6461 98.379C82.2732 99.2013 82.2001 99.0994 83.0357 98.6914C89.1554 95.703 95.4208 92.9957 101.656 90.2576C107.79 87.5637 113.987 84.7297 120.323 82.5265C121.11 82.2527 122.196 81.5846 123.018 81.9018C124.733 82.5629 126.619 82.9539 128.394 83.448C135.758 85.4983 143.231 87.5624 150.785 88.7738C154.991 89.4484 159.263 89.9013 163.437 90.773C164.413 90.9767 167.11 92.6108 166.445 90.7573C165.615 88.4477 162.938 86.0265 161.303 84.2602C158.554 81.2915 155.51 78.4788 152.187 76.1699C150.106 74.7236 147.488 73.5051 145.612 71.8125C144.941 71.2069 147.603 69.9316 148.152 69.5478C156.543 63.6794 163.575 56.1389 171.945 50.2437C173.317 49.2773 176.619 47.8507 174.048 46.511C169.497 44.1385 163.66 43.093 158.778 41.7786C156.544 41.177 154.291 40.7166 152.094 39.9826C149.732 39.1936 147.459 38.1684 145.02 37.6398C143.141 37.2327 140.779 36.9384 139.114 35.9374" stroke="white" stroke-width="3" stroke-linecap="round"/>
    <path d="M232.638 85.6025C232.638 80.4589 231.786 75.404 231.486 70.286C231.439 69.4915 231.201 68.037 230.766 67.2516C230.6 66.9519 230.777 66.2108 230.558 66.0154C230.329 65.8114 229.29 67.6969 229.166 67.8778C227.515 70.2801 225.444 72.7121 223.999 75.1988C223.183 76.6027 221.649 77.7788 220.463 78.8754C218.264 80.9076 216.322 83.1919 214.208 85.3135C213.693 85.83 212.132 88.0324 211.328 88.0749C210.927 88.0961 209.717 87.106 209.312 86.9029C207.675 86.0811 206.064 86.0193 204.273 85.747C200.381 85.1551 196.686 83.5795 192.754 83.5795C191.65 83.5795 190.546 83.5795 189.443 83.5795C187.479 83.5795 187.668 83.6971 189.123 84.9282C193.106 88.2985 197.323 91.2934 201.393 94.5611C201.98 95.0327 202.884 95.4502 202.625 96.2951C201.935 98.5468 199.591 100.675 198.13 102.444C196.662 104.22 194.865 105.592 193.25 107.212C191.311 109.158 190.544 112.102 189.011 114.325C188.519 115.038 190.112 113.947 190.466 113.779C192.177 112.966 194.071 112.534 195.906 112.125C201.593 110.857 207.237 109.838 213.008 109.011C214.119 108.851 218.704 106.69 219.519 107.742C220.697 109.262 221.125 110.721 222.911 111.836C224.837 113.039 227.296 113.888 228.958 115.433C231.231 117.545 234.668 119.581 237.533 120.699C238.434 121.05 239.6 121.189 240.349 121.79C240.59 121.984 240.989 122.196 240.989 121.662C240.989 120.318 239.508 118.769 238.621 117.921C235.397 114.84 232.315 111.662 229.598 108.112C228.743 106.994 227.959 105.862 227.182 104.692C226.86 104.207 229.794 104.387 230.206 104.387C236.972 104.387 243.858 104.28 250.572 103.375C251.211 103.289 259.291 103.268 256.363 101.224C254.519 99.9365 252.468 98.9582 250.508 97.8685C247.394 96.1375 244.536 93.9865 241.437 92.2492C236.683 89.585 231.469 87.3306 226.302 85.6025" stroke="white" stroke-width="3" stroke-linecap="round"/>
    <path d="M293.914 266.255C293.914 264.692 295.623 264.166 296.663 263.238C298.396 261.69 301.174 261.173 303.345 260.543C307.045 259.469 310.941 258.289 314.716 257.525C318.337 256.793 322.092 257.04 325.763 257.04C329.568 257.04 333.556 256.882 337.295 257.741C340.272 258.425 341.983 259.267 344.463 260.92C349.327 264.163 348.46 271.114 348.235 276.063C347.963 282.041 343.143 287.747 339.694 292.257C336.8 296.041 332.842 298.139 329.562 301.419C327.078 303.903 324.949 307.315 322.745 310.149C320.55 312.972 321.075 316.934 321.075 320.307C321.075 322.366 322.045 324.257 322.045 326.369C322.045 327.609 322.101 330.762 323.5 330.762" stroke="white" stroke-width="15" stroke-linecap="round"/>
    <path d="M323.985 351.617C321.951 351.617 321.919 356.561 324.47 356.925C327.56 357.366 328.071 351.823 326.41 350.162" stroke="white" stroke-width="15" stroke-linecap="round"/>
    <path d="M244.838 419.883C241.878 413.223 247.362 406.209 251.871 401.938C255.411 398.584 259.967 395.315 264.562 393.477C269.775 391.392 275.191 391.753 280.702 391.753C285.709 391.753 287.905 392.06 292.181 394.663C293.723 395.601 294.671 396.504 296.007 397.573C297.029 398.391 296.914 399.869 297.704 400.752C299.356 402.599 299.644 406.424 299.644 408.944C299.644 411.161 300.737 413.302 299.752 415.518C298.895 417.446 298.354 419.696 297.489 421.715C296.719 423.512 294.479 426.018 293.097 427.401C291.022 429.476 288.974 433.158 288.974 436.104C288.974 440.47 292.519 441.434 294.794 444.619C297.051 447.778 297.882 452.237 299.914 455.666C301.099 457.666 301.503 460.758 302.069 463.022C302.329 464.06 304.464 469.478 304.979 467.414" stroke="white" stroke-width="15" stroke-linecap="round"/>
    <path d="M316.71 484.509C314.567 484.747 315.845 490.764 317.922 490.302C319.428 489.968 319.395 486.963 319.727 485.856C320.478 483.355 319.264 481.858 318.165 479.659" stroke="white" stroke-width="15" stroke-linecap="round"/>
    <ellipse cx="266.5" cy="747.136" rx="69.5" ry="15" fill="#D9D9D9"/>
    <path d="M346.5 628.136C339.5 609.136 274 582.636 228 589.636C198.4 628.836 212 654.969 222.5 663.136C255.286 688.636 294.167 687.469 318.5 684.136C340 681.47 353.5 647.136 346.5 628.136Z" fill="#A3A3A3"/>
    <path d="M248 553.136C244 575.536 233 586.803 228 589.636C324.5 587.136 347 633.136 348 629.136C348 618.336 343.667 606.636 341.5 602.136C349.167 591.136 359.9 565.636 341.5 551.636C323.1 537.636 308.167 564.803 303 580.136C303 580.136 295 580.136 293 575.636C299.4 548.036 290.333 536.803 285 534.636C274.333 531.47 252 530.736 248 553.136Z" fill="white"/>
    <path d="M210 686.136C205.6 680.536 215.833 668.47 221.5 663.136C241.78 677.849 292.728 682.416 317.069 684.598L317.5 684.636C336.3 704.636 326 714.136 317.5 714.636L304.5 710.636C304.5 724.636 298 745.636 283.5 746.636C269 747.636 277 734.136 274 730.136C271.6 726.936 261.5 726.136 254.5 726.136C249 726.136 247 732.136 246.5 737.636C245.667 737.97 240.5 737.636 234 737.636C225.5 737.636 225.833 709.303 228 693.136C223.833 693.136 214.4 691.736 210 686.136Z" fill="white"/>
    <path d="M101.172 868C101.172 864.466 104.216 862.384 104.915 859.039C106.617 850.89 109.27 841.857 107.306 833.415C103.768 818.211 93.0622 806.611 78.1465 802.918C59.7113 798.353 40.8632 796.996 22.375 803.127C9.91774 807.259 2 810.804 2 824.664C2 834.533 2.36104 842.345 5.53444 851.232C7.3984 856.452 14.1377 858.603 18.3728 861.45C22.5276 864.242 26.1061 867.057 31.1072 867.057C39.77 867.057 48.4329 867.057 57.0958 867.057C65.8736 867.057 70.8497 863.869 77.5747 858.987C82.0435 855.743 79.6538 842.668 79.6538 837.817C79.6538 820.687 63.9374 817.066 49.715 817.066C46.4058 817.066 43.0966 817.066 39.7874 817.066C34.1836 817.066 32.4856 817.588 28.1965 820.367C21.9322 824.427 22.2105 830.116 22.5829 836.874C23.1132 846.495 40.3725 849.029 46.9082 845.153C48.9487 843.943 54.1054 837.396 51.1184 834.987C47.1898 831.819 43.5594 831.214 38.4879 831.214" stroke="white" stroke-width="3" stroke-linecap="round"/>
</svg>
    