<svg width="336" height="864" viewBox="0 0 336 864" fill="none" xmlns="http://www.w3.org/2000/svg">
    <path d="M215.166 32.2828C215.166 30.5596 216.359 28.9223 217.254 27.5348C221.085 21.601 224.469 15.4439 228.083 9.38649C229.494 7.02224 230.952 4.69397 232.306 2.29583C232.947 1.16001 233.505 3.63089 233.662 4.06069C235.845 10.0359 237.639 16.1786 239.723 22.1934C241.324 26.8146 242.697 31.6522 243.431 36.4997C243.751 38.6067 245.763 37.2315 247.405 36.9214C259.258 34.6829 271.483 35.1934 283.383 33.4698C284.791 33.2658 286.2 32.9351 287.606 32.7513C288.571 32.6251 287.478 34.0587 287.341 34.2819C285.907 36.6135 284.506 38.8946 282.697 40.9665C278.923 45.29 273.812 48.2546 269.141 51.4932C264.253 54.8823 259.267 58.1386 254.323 61.442C253.332 62.1041 253.675 62.8248 254.121 63.8003C255.522 66.8693 257.258 69.7984 258.857 72.7652C262.589 79.6878 266.293 86.7452 269.391 93.9747C270.024 95.4534 270.69 96.914 271.354 98.379C271.727 99.2013 271.8 99.0994 270.964 98.6914C264.845 95.703 258.579 92.9957 252.344 90.2576C246.21 87.5637 240.013 84.7297 233.677 82.5265C232.89 82.2527 231.804 81.5846 230.982 81.9018C229.267 82.5629 227.381 82.9539 225.606 83.448C218.242 85.4983 210.769 87.5624 203.215 88.7738C199.009 89.4484 194.737 89.9013 190.563 90.773C189.587 90.9767 186.89 92.6108 187.555 90.7573C188.385 88.4477 191.062 86.0265 192.697 84.2602C195.446 81.2915 198.49 78.4788 201.813 76.1699C203.894 74.7236 206.512 73.5051 208.388 71.8125C209.059 71.2069 206.397 69.9316 205.848 69.5478C197.457 63.6794 190.425 56.1389 182.055 50.2437C180.683 49.2773 177.381 47.8507 179.952 46.511C184.503 44.1385 190.34 43.093 195.222 41.7786C197.456 41.177 199.709 40.7166 201.906 39.9826C204.268 39.1936 206.541 38.1684 208.98 37.6398C210.859 37.2327 213.221 36.9384 214.886 35.9374" stroke="white" stroke-width="3" stroke-linecap="round"/>
    <path d="M104.362 81.6025C104.362 76.4589 105.214 71.404 105.514 66.286C105.561 65.4915 105.799 64.037 106.234 63.2516C106.4 62.9519 106.223 62.2108 106.442 62.0154C106.671 61.8114 107.71 63.6969 107.834 63.8778C109.485 66.2801 111.556 68.7121 113.001 71.1988C113.817 72.6027 115.351 73.7788 116.537 74.8754C118.736 76.9076 120.678 79.1919 122.792 81.3135C123.307 81.83 124.868 84.0324 125.672 84.0749C126.073 84.0961 127.283 83.106 127.688 82.9029C129.325 82.0811 130.936 82.0193 132.727 81.747C136.619 81.1551 140.314 79.5795 144.246 79.5795C145.35 79.5795 146.454 79.5795 147.557 79.5795C149.521 79.5795 149.332 79.6971 147.877 80.9282C143.894 84.2985 139.677 87.2934 135.607 90.5611C135.02 91.0327 134.116 91.4502 134.375 92.2951C135.065 94.5468 137.409 96.6751 138.87 98.4441C140.338 100.22 142.135 101.592 143.75 103.212C145.689 105.158 146.456 108.102 147.989 110.325C148.481 111.038 146.888 109.947 146.534 109.779C144.823 108.966 142.929 108.534 141.094 108.125C135.407 106.857 129.763 105.838 123.992 105.011C122.881 104.851 118.296 102.69 117.481 103.742C116.303 105.262 115.875 106.721 114.089 107.836C112.163 109.039 109.704 109.888 108.042 111.433C105.769 113.545 102.332 115.581 99.4669 116.699C98.566 117.05 97.3999 117.189 96.6513 117.79C96.4097 117.984 96.0113 118.196 96.0113 117.662C96.0113 116.318 97.4924 114.769 98.3791 113.921C101.603 110.84 104.685 107.662 107.402 104.112C108.257 102.994 109.041 101.862 109.818 100.692C110.14 100.207 107.206 100.387 106.794 100.387C100.028 100.387 93.142 100.28 86.4284 99.3753C85.7888 99.2891 77.7088 99.2682 80.6371 97.2239C82.4812 95.9365 84.5325 94.9582 86.4924 93.8685C89.6055 92.1375 92.4635 89.9865 95.5634 88.2492C100.317 85.585 105.531 83.3306 110.698 81.6025" stroke="white" stroke-width="3" stroke-linecap="round"/>
    <path d="M-6 605.052C-5.67156 602.425 2.2756 599.389 4.04266 598.188C11.7944 592.916 17.6924 584.176 23.4924 576.958C25.344 574.654 39.0334 555.714 39.764 558.271C43.3976 570.989 46.7801 584.344 51.205 596.789C52.3494 600.008 52.9889 605.14 56.6713 600.476C63.4084 591.942 70.0679 583.436 77.4557 575.433C79.4231 573.301 84.4014 565.621 86.1636 569.649C88.1052 574.087 89.551 577.952 90.6765 582.679C91.6918 586.943 94.1043 590.172 96.397 593.738C98.8977 597.628 99.3686 603.077 102.435 606.451C106.116 610.499 152.958 561.219 165.615 557" stroke="white" stroke-width="3" stroke-linecap="round"/>
    <path d="M259.512 800.569C259.512 792.162 284.637 768.069 290.657 782.517C292.299 786.457 295.606 801.007 299.619 800.505C305.481 799.772 309.811 794.921 315.001 793.768C319.206 792.833 322.182 795.055 325.87 796.564C328.597 797.68 333.879 799.61 333.879 802.857C333.879 806.163 334.92 810.941 331.591 812.9C329.551 814.099 317.476 819.296 321.866 821.735C329.172 825.793 329.303 829.908 329.303 838.07C329.303 841.287 328.409 843.158 326.124 845.443C324.224 847.343 321.329 845.554 319.006 846.587C314.427 848.622 308.093 845.342 306.357 851.418C303.838 860.234 293.944 862.35 285.572 862.35C274.151 862.35 277.171 858.44 272.67 850.337C269.255 844.191 256.505 852.115 250.932 849.638C246.452 847.647 238.747 828.538 246.927 828.027C250.577 827.799 239.828 826.119 236.185 825.802C231.85 825.425 233.198 822.16 233.198 818.366C233.198 814.718 235.106 805.437 240.063 805.145C245.777 804.809 252.275 806.156 257.224 802.857" stroke="white" stroke-width="3" stroke-linecap="round"/>
    <path d="M38.8167 184.853C26.7229 171.26 4.53605 230.364 -5.04562 261.616L-26.657 342.271C-14.5198 346.558 22.0806 357.815 71.3845 368.541C133.014 381.949 139.642 334.032 147.088 302.38C154.81 269.553 154.245 215.782 140.722 212.158C129.904 209.26 111.48 263.334 103.621 290.733L40.8105 268.209C45.6595 244.317 50.9106 198.446 38.8167 184.853Z" fill="white"/>
</svg>
    